<?xml version="1.0" encoding="UTF-8"?>
<svg class="fore" width="5605px" height="306px" viewBox="0 0 5605 306" version="1.1" xmlns="http://www.w3.org/2000/svg" xmlns:xlink="http://www.w3.org/1999/xlink">
    <!-- Generator: Sketch 49.1 (51147) - http://www.bohemiancoding.com/sketch -->
    <title>Page 1</title>
    <desc>Created with Sketch.</desc>
    <defs>
        <polygon id="path-1" points="0 0.331 5604.9948 0.331 5604.9948 306 0 306"></polygon>
    </defs>
    <g id="Page-1" stroke="none" stroke-width="1" fill="none" fill-rule="evenodd">
        <g transform="translate(0.000000, -1.000000)">
            <path d="M278.4817,221.4507 C277.5747,224.0057 276.8117,228.2327 276.2657,233.1627 C278.1177,227.0347 280.3137,220.1507 282.5377,213.5777 C280.2477,218.0467 278.5357,221.2977 278.4817,221.4507" id="Fill-1" fill="#201C2D"></path>
            <g id="Group-5" transform="translate(0.000000, 0.669000)">
                <mask id="mask-2" fill="white">
                    <use xlink:href="#path-1"></use>
                </mask>
                <g id="Clip-4"></g>
                <path d="M204.7798,210.3462 C205.3228,213.6762 205.2788,217.0042 204.6488,220.3292 C204.5758,223.5532 202.0578,230.7012 198.5558,238.7262 C200.2748,235.6742 202.2388,232.8572 204.5628,230.3992 C204.5798,233.6102 203.5218,238.0092 201.8988,243.0152 L196.6288,243.0152 C197.2968,241.5692 197.9408,240.1352 198.5558,238.7262 C197.7758,240.1102 197.0448,241.5412 196.3598,243.0152 L184.2218,243.0152 C187.7718,231.1692 193.6788,220.6242 204.7798,210.3462 Z M208.2698,198.2772 C207.9228,194.7652 207.5348,191.2142 207.0858,187.6492 C207.8368,192.3102 208.3458,196.0992 208.2698,198.2772 Z M210.7208,224.9752 C210.9998,229.1942 211.2798,233.4122 211.5588,237.6302 L209.0688,243.0152 L207.4118,243.0152 C207.7098,236.9812 208.8158,226.3552 210.7208,224.9752 Z M218.1588,199.8422 C218.1508,200.3502 214.6248,211.5262 213.6148,211.0222 C220.1698,214.2952 218.6958,214.6252 213.1788,218.2002 C208.5208,209.1112 210.1808,202.9922 218.1588,199.8422 Z M212.4188,193.3262 C214.7378,187.5462 217.0578,181.7662 219.3778,175.9862 C218.2138,183.6722 208.8348,204.0042 212.4188,193.3262 Z M220.0568,229.5832 C220.9898,230.0322 219.8568,233.0762 220.0568,229.5832 Z M221.0318,219.7052 C224.0258,217.4462 226.7038,217.3182 229.0628,219.3232 C226.3128,222.2892 219.6148,227.0742 221.0318,219.7052 Z M233.5608,148.0482 C227.5818,162.9572 224.4428,189.2322 221.4528,191.1892 C221.9218,174.4562 225.4378,161.4692 233.5608,148.0482 Z M240.1078,233.4592 C233.0848,232.4922 229.5548,229.2662 229.5198,223.7842 C236.6868,216.3442 241.2898,227.5692 240.1078,233.4592 Z M242.7888,230.4232 C245.3588,233.7132 249.2988,240.1782 251.3538,243.0152 L251.2698,243.0152 C247.0568,238.3652 241.5608,237.5932 242.7888,230.4232 Z M249.6468,216.2952 C250.5288,220.4272 261.8718,248.1882 256.6948,240.2522 C249.4788,229.1902 239.5048,226.3992 249.6468,216.2952 Z M1754.1728,224.3582 C1754.6168,227.0812 1754.5818,229.8032 1754.0658,232.5242 C1754.0128,234.8782 1752.9928,238.6542 1751.3978,243.0152 L1740.3708,243.0152 C1743.3678,236.4792 1747.6868,230.3642 1754.1728,224.3582 Z M1765.1158,215.7682 C1765.1088,216.1822 1762.2248,225.3232 1761.3988,224.9102 C1766.7598,227.5882 1765.5538,227.8582 1761.0418,230.7822 C1757.2328,223.3482 1758.5898,218.3432 1765.1158,215.7682 Z M1760.4198,210.4382 C1762.3178,205.7102 1764.2148,200.9832 1766.1118,196.2562 C1765.1608,202.5422 1757.4898,219.1712 1760.4198,210.4382 Z M1767.4648,232.0122 C1769.9148,230.1642 1772.1038,230.0612 1774.0338,231.7002 C1771.7848,234.1262 1766.3058,238.0392 1767.4648,232.0122 Z M1773.1668,189.1022 C1770.9588,198.6672 1769.3598,207.6752 1767.8088,208.6902 C1767.9878,202.3122 1769.4878,194.9182 1771.9128,187.3852 C1772.3128,187.9392 1772.7318,188.5122 1773.1668,189.1022 Z M1795.8338,219.0082 C1798.5328,223.8092 1799.2158,232.2152 1798.8218,240.9082 C1795.3088,231.4302 1792.8358,219.0382 1791.7268,213.3702 C1792.6238,217.9532 1788.3258,228.7202 1785.8338,234.2482 C1780.4198,226.9142 1779.9428,226.9102 1775.3718,220.4852 C1775.0508,220.0342 1772.1048,224.1592 1773.4548,225.9892 C1761.9728,219.1452 1785.8438,197.8202 1771.9068,206.1282 C1772.0998,204.8272 1773.5938,199.1012 1775.5768,192.3312 C1783.4488,202.7692 1794.2618,216.2112 1795.8338,219.0082 Z M1814.0158,226.6072 C1814.7398,227.7552 1815.4208,228.8232 1816.0408,229.8082 C1815.0968,231.6312 1814.4808,232.8112 1814.4518,232.8932 C1813.7238,234.9432 1813.1098,238.3072 1812.6648,242.2392 C1813.8028,238.5172 1815.0978,234.4702 1816.4408,230.4482 C1819.7408,235.7482 1821.2068,238.9442 1818.9438,243.0152 L1812.5808,243.0152 C1812.6078,242.7542 1812.6368,242.4952 1812.6648,242.2392 C1812.5858,242.5002 1812.5078,242.7572 1812.4298,243.0152 L1806.4478,243.0152 C1808.0078,237.2882 1811.3498,231.5302 1814.0158,226.6072 Z M1847.0958,213.9702 C1850.6848,216.1172 1853.7218,218.9422 1856.2068,222.4442 C1848.9798,228.6912 1841.4668,234.1882 1834.5658,240.8712 C1825.8158,249.3432 1845.0468,220.0322 1847.0958,213.9702 Z M1845.8458,243.0152 L1845.1238,243.0152 C1848.9388,239.5092 1855.3288,233.0362 1859.2888,229.8342 C1861.5038,238.0112 1852.4918,239.4162 1845.8458,243.0152 Z M1882.8768,222.3792 C1881.9118,230.5602 1875.6378,234.1822 1864.0538,233.2442 C1860.7278,222.7822 1872.8388,215.7982 1882.8768,222.3792 Z M1897.9668,217.7992 C1901.1528,228.2642 1885.9438,218.9082 1883.6888,217.3702 C1888.1938,215.0472 1892.9528,215.1902 1897.9668,217.7992 Z M1877.2398,139.0732 C1889.7898,152.5062 1896.2998,165.1082 1897.2178,185.7802 C1889.8368,182.7292 1886.1648,155.7732 1877.2398,139.0732 Z M1899.6998,228.8912 C1900.0168,232.3982 1897.8188,229.4622 1899.6998,228.8912 Z M1913.2788,188.1792 C1916.8838,194.9632 1914.1028,192.5122 1908.6768,190.9482 C1897.5018,187.7272 1903.1038,177.8722 1900.9068,168.7072 C1905.4628,174.9242 1909.5868,181.4142 1913.2788,188.1792 Z M1911.9268,216.1092 C1902.1818,212.1202 1899.5168,211.7192 1911.1518,208.0492 C1908.8768,208.7662 1903.1328,197.7412 1903.0738,195.4962 C1915.4138,197.0252 1918.3648,203.8962 1911.9268,216.1092 Z M1916.2968,223.7172 C1919.5648,225.2132 1921.1238,236.5952 1921.5868,243.0152 L1918.5318,243.0152 C1917.2898,241.3202 1916.0488,239.6232 1914.8068,237.9272 C1915.3038,233.1912 1915.8008,228.4542 1916.2968,223.7172 Z M1926.8578,207.2902 C1944.9188,217.8532 1955.6618,228.8122 1962.6348,243.0152 L1941.9708,243.0152 C1933.7698,232.0432 1927.2108,221.8662 1927.0908,218.5012 C1925.9708,214.7702 1925.8938,211.0332 1926.8578,207.2902 Z M2683.0488,234.7152 C2673.3048,234.7152 2657.9038,209.8512 2644.6288,190.8452 C2661.6888,198.2002 2676.1208,208.3522 2691.2988,224.5692 C2690.1858,231.0842 2687.0858,236.2142 2685.9818,243.0152 L2683.4108,243.0152 C2681.3638,239.5752 2679.3698,234.7152 2683.0488,234.7152 Z M2656.1208,227.2292 C2645.8108,224.5422 2644.0408,219.4142 2650.8128,211.8452 C2658.4288,220.0652 2669.3948,226.2802 2673.2978,237.3262 C2667.4978,234.0882 2661.7708,230.7222 2656.1208,227.2292 Z M2644.4348,218.9842 C2630.7498,208.4502 2620.3948,196.4082 2613.2528,180.6412 C2619.0508,182.1102 2624.7658,183.7372 2630.3748,185.5472 C2638.2398,197.9742 2647.0248,212.8152 2644.4348,218.9842 Z M2687.2788,194.5302 C2688.1438,192.5632 2689.0098,190.5962 2689.8748,188.6292 C2690.4938,192.5842 2690.8738,196.5672 2691.0188,200.5772 C2689.7718,198.5622 2688.5258,196.5452 2687.2788,194.5302 Z M2707.2548,190.7922 C2706.9838,194.9752 2706.5428,199.0222 2705.6008,203.1382 C2703.7918,204.9852 2702.1298,206.8322 2702.4338,209.3052 C2702.5768,210.4732 2702.6438,211.4322 2702.6528,212.2242 C2702.1408,213.4272 2701.5678,214.6492 2700.9338,215.8912 C2700.2018,215.9052 2699.6448,215.6242 2700.2558,217.1762 C2700.1088,217.4502 2699.9658,217.7212 2699.8118,217.9952 C2697.4778,206.2232 2695.5888,193.6152 2698.8858,183.4892 C2702.3168,185.8642 2705.3018,188.3522 2707.2548,190.7922 Z M2708.4528,170.4812 C2708.2488,172.4952 2708.0988,174.4352 2707.9778,176.3212 C2706.3968,174.5232 2705.3628,173.5832 2705.2338,174.0262 C2704.9108,175.1412 2706.0398,177.1512 2707.7928,179.5842 C2707.6628,182.2052 2707.5688,184.7232 2707.4528,187.1762 C2704.7908,185.2012 2702.1808,183.3762 2699.5398,181.6942 C2701.2898,177.3282 2704.1168,173.4922 2708.4528,170.4812 Z M2739.5288,132.9302 C2740.3168,137.1852 2741.3268,141.5772 2742.4918,146.0402 C2728.3538,153.3812 2717.5738,159.3122 2717.2428,159.5262 C2719.4788,152.7352 2732.0888,141.0212 2739.5288,132.9302 Z M2757.0588,140.2062 C2760.6818,157.2312 2765.7978,180.2162 2765.5688,197.1492 C2764.5618,197.9662 2763.5518,198.7882 2762.5398,199.6162 C2761.9628,198.1782 2761.3448,196.5862 2760.6928,194.8482 C2761.3408,192.3682 2761.3148,189.5842 2760.3638,186.4172 C2759.5448,183.6942 2757.7338,181.6082 2755.4528,179.8172 C2752.0508,169.3972 2748.5008,157.1972 2745.7488,145.2272 C2748.9838,143.2402 2752.8468,141.6082 2757.0588,140.2062 Z M2783.6938,133.6382 C2785.0528,140.9612 2786.1388,148.4922 2786.2248,156.3592 C2786.3128,164.4552 2786.3448,172.4752 2786.3378,180.4702 C2784.6798,181.8032 2782.9848,183.1622 2781.2548,184.5462 C2780.2658,183.2432 2778.9348,182.1952 2777.1918,181.4652 C2778.8438,182.1572 2779.7858,183.5352 2780.1768,185.4092 C2777.2438,187.7552 2774.2278,190.1662 2771.1548,192.6372 C2765.9158,174.7902 2760.4988,153.8382 2757.2598,140.1412 C2765.4708,137.4302 2774.9718,135.5752 2783.6938,133.6382 Z M2795.2748,130.7462 C2793.7678,136.7422 2792.3058,141.8502 2790.7588,145.1422 C2790.3108,141.1282 2789.5448,136.8852 2788.6348,132.5012 C2790.9558,131.9442 2793.1838,131.3662 2795.2748,130.7462 Z M2817.2238,160.1502 C2811.1368,163.0302 2805.3068,166.2842 2799.8348,170.0182 C2800.1188,155.1352 2799.0528,140.5202 2804.7988,126.9922 C2805.7068,126.4832 2806.5338,125.9462 2807.2668,125.3732 C2805.7348,138.9632 2812.9448,149.5942 2817.2238,160.1502 Z M2831.6568,167.7972 C2821.9528,193.2312 2807.5068,217.0452 2799.2818,243.0152 L2797.1938,243.0152 C2797.3238,223.9852 2795.5448,219.2522 2806.3508,201.3642 C2814.8348,187.3182 2823.8678,181.7542 2823.2928,164.8802 C2827.1388,162.9852 2831.0498,161.2002 2835.0098,159.5112 C2833.8758,162.1562 2832.7588,164.9082 2831.6568,167.7972 Z M3841.3198,237.8382 C3841.7928,239.8972 3842.2098,241.5682 3842.5888,243.0152 L3839.0938,243.0152 C3840.3708,240.1772 3841.2568,238.0582 3841.3198,237.8382 Z M3847.7228,208.7482 C3848.2278,208.3282 3848.8448,207.6862 3849.5818,206.7932 C3852.0338,219.0782 3852.1168,230.6642 3850.3658,243.0152 L3847.9818,243.0152 C3846.9768,231.8812 3847.3928,220.2732 3847.7228,208.7482 Z M3848.0158,200.0462 C3848.0858,200.3122 3848.1478,200.5752 3848.2158,200.8402 C3848.1088,201.0682 3848.0018,201.2952 3847.9018,201.5202 C3847.9108,201.0672 3847.9198,200.6142 3847.9278,200.1622 C3847.9568,200.1232 3847.9868,200.0842 3848.0158,200.0462 Z M3814.9448,182.6412 C3806.3438,176.3682 3804.9368,168.5492 3810.7228,159.1822 C3816.9998,172.1682 3825.9358,183.5312 3828.6098,198.0382 C3823.9248,193.0212 3819.3708,187.8892 3814.9448,182.6412 Z M3841.7968,123.7802 C3842.2908,129.8412 3842.5938,135.9142 3842.7068,141.9992 C3841.7148,138.9252 3840.7238,135.8522 3839.7318,132.7782 C3840.4198,129.7792 3841.1088,126.7802 3841.7968,123.7802 Z M3856.5758,96.1052 C3855.2338,121.4732 3856.9358,143.7972 3849.7018,168.5612 C3847.3778,146.0932 3843.2238,113.8712 3856.5758,96.1052 Z M3879.4958,46.2302 C3880.7498,47.9472 3882.2518,50.9922 3883.8758,54.8582 C3877.4608,62.1332 3870.9758,70.2552 3863.5678,79.3992 C3865.1888,69.9662 3873.5078,57.4572 3879.4958,46.2302 Z M3882.6708,45.2882 C3881.9418,44.8672 3881.1958,44.5792 3880.4328,44.4442 C3880.5988,44.1212 3880.7568,43.8032 3880.9178,43.4832 C3881.5348,44.1052 3882.1258,44.7112 3882.6708,45.2882 Z M3885.4698,31.6232 C3887.7438,36.6722 3889.9248,41.7242 3891.8498,46.2682 C3891.0108,47.1192 3890.1768,47.9852 3889.3468,48.8622 C3887.2928,46.1792 3884.9788,43.1962 3882.5418,40.1002 C3883.9148,37.0712 3884.9658,34.2082 3885.4698,31.6232 Z M3911.0738,39.4672 C3912.0948,38.7742 3913.9198,37.2842 3916.1458,35.3812 C3919.4208,59.2812 3921.6098,90.3132 3922.5488,105.8712 C3921.9858,106.7432 3921.4428,107.6462 3920.8988,108.5452 C3915.5408,92.2712 3908.6308,68.9222 3899.7318,47.7202 C3903.5408,44.6752 3907.4648,41.9182 3911.0738,39.4672 Z M3968.2358,225.6572 C3963.4338,222.1722 3954.3248,207.0802 3946.4868,191.5472 C3953.5068,208.4252 3957.5138,228.0612 3965.3148,243.0152 L3958.8498,243.0152 C3955.0048,227.6392 3936.5128,211.8672 3937.2148,208.8432 C3929.9168,196.8132 3932.4098,182.2752 3932.4818,168.8692 C3935.9248,172.3762 3938.8188,176.4382 3941.3348,180.8672 C3936.2038,169.6932 3932.4648,159.6782 3932.3628,155.3102 C3931.4818,150.8302 3931.4208,146.3492 3932.1798,141.8652 C3958.8858,165.6832 3964.2978,191.4762 3968.2358,225.6572 Z M3976.9828,243.0152 L3976.6408,243.0152 C3975.4958,233.9512 3972.8278,224.2012 3971.5708,215.3562 C3970.6848,209.1172 3977.9108,233.1552 3976.9828,243.0152 Z M5090.9288,241.6092 C5090.8648,242.0732 5090.7858,242.5452 5090.7128,243.0152 L5090.0348,243.0152 C5090.9428,238.7892 5091.5868,236.7972 5090.9288,241.6092 Z M5116.8308,191.4422 C5117.3288,194.5032 5117.2898,197.5632 5116.7098,200.6192 C5116.5848,206.1442 5103.8208,231.4982 5096.9758,243.0152 L5093.7808,243.0152 C5096.3318,222.5312 5100.3858,206.6682 5116.8308,191.4422 Z M5119.9208,177.7002 C5120.0148,178.7392 5120.0638,179.6432 5120.0378,180.3472 C5119.9418,179.3622 5119.8388,178.3722 5119.7358,177.3812 C5119.7968,177.4872 5119.8588,177.5942 5119.9208,177.7002 Z M5141.3178,119.3702 C5133.1838,136.9632 5127.5278,158.8262 5123.1648,172.0432 C5123.0748,171.8952 5122.9858,171.7472 5122.8968,171.6002 C5123.3238,160.9832 5124.8608,122.6172 5129.0738,105.3052 C5133.9348,110.2862 5138.3658,115.2702 5141.3178,119.3702 Z M5149.4518,111.9832 C5150.2148,113.4312 5150.9888,114.8892 5151.7548,116.3452 C5150.6938,117.7332 5149.6668,119.1492 5148.6708,120.5842 C5148.0268,119.7482 5147.3868,118.9242 5146.7508,118.1122 C5147.6278,116.0722 5148.5358,114.0042 5149.4518,111.9832 Z M5159.1528,134.4682 C5156.7428,131.2682 5154.4658,128.2182 5152.2648,125.3032 C5152.4998,125.1262 5152.7138,125.0592 5152.9018,125.1282 C5152.5798,125.0102 5152.2648,124.9372 5151.9538,124.8912 C5151.1458,123.8212 5150.3448,122.7662 5149.5538,121.7332 C5150.4498,120.2462 5151.3678,118.7992 5152.3058,117.3942 C5155.4778,123.4752 5158.3538,129.4652 5159.1528,134.4682 Z M5167.1668,209.2482 C5166.9478,209.0002 5166.7068,208.7512 5166.4518,208.5002 C5162.8008,198.0802 5160.2288,185.1572 5159.0398,179.0912 C5159.6978,182.4522 5156.1698,193.2162 5153.6648,199.5722 C5151.2408,198.0502 5148.7898,196.4862 5146.5288,194.8762 C5144.8518,192.7672 5143.4168,190.9672 5140.6568,187.0882 C5140.5108,186.8812 5139.8768,187.5322 5139.2778,188.5082 C5137.9148,186.8542 5136.9778,185.1602 5136.6788,183.4262 C5136.4978,182.3742 5136.4218,181.3602 5136.4118,180.3682 C5139.3758,173.1842 5145.0808,166.7212 5139.4278,169.4802 C5145.3248,158.5122 5157.2408,149.0352 5150.9138,130.5622 C5166.0078,149.0672 5157.6948,170.7032 5162.9018,193.2352 L5167.1668,209.2482 Z M5169.8188,208.2822 C5164.2998,187.9512 5165.5578,169.1962 5164.5308,148.2982 C5175.3678,163.8192 5171.6278,189.4432 5169.8188,208.2822 Z M5175.8998,171.2092 C5176.4288,173.6932 5176.9578,176.1752 5177.4878,178.6592 C5176.7248,181.2032 5175.9618,183.7472 5175.1978,186.2922 C5175.2858,181.2562 5175.5188,176.2292 5175.8998,171.2092 Z M5199.8018,200.5172 C5204.2858,208.1312 5203.2038,214.6042 5196.5538,219.9382 C5193.0508,224.1872 5189.5468,228.4362 5186.0428,232.6842 C5188.0748,220.8192 5194.9688,211.2792 5199.8018,200.5172 Z M5105.9818,243.0152 L5101.5848,243.0152 C5105.2918,230.9002 5108.7608,218.2002 5116.6318,209.8752 C5116.6688,217.0352 5110.9048,230.6032 5105.9818,243.0152 Z M5123.3278,221.0382 C5123.7528,228.4962 5121.2178,236.4462 5117.7078,243.0152 L5117.1178,243.0152 C5117.5538,239.4372 5121.8658,224.3382 5123.3278,221.0382 Z M5122.2918,204.8912 C5122.5488,208.7682 5122.8058,212.6462 5123.0628,216.5242 C5121.8998,219.0402 5120.7358,221.5562 5119.5718,224.0732 C5118.5598,230.9082 5119.4798,206.9282 5122.2918,204.8912 Z M5125.7118,188.1472 C5125.9598,188.6182 5126.2238,189.1052 5126.4928,189.5962 C5125.8568,191.1252 5125.2698,192.2212 5124.9518,192.0632 C5130.9788,195.0732 5129.6228,195.3762 5124.5518,198.6612 C5121.5568,192.8182 5121.4128,188.3142 5124.1028,185.1412 C5124.6398,186.1362 5125.1788,187.1292 5125.7118,188.1472 Z M5125.0058,175.0832 C5124.8308,174.7952 5124.6578,174.5092 5124.4848,174.2222 L5130.2498,159.8552 C5129.6748,163.6522 5126.9208,170.8002 5125.0058,175.0832 Z M5129.1108,181.9002 C5129.0938,181.8722 5129.0768,181.8442 5129.0608,181.8172 C5129.0848,181.8072 5129.1058,181.7952 5129.1298,181.7862 C5129.1298,181.8052 5129.1218,181.8482 5129.1108,181.9002 Z M5149.3078,212.6902 C5148.2548,212.5452 5147.2968,212.3392 5146.4148,212.0832 C5144.6888,208.8722 5142.9188,205.6652 5141.1188,202.4742 C5146.8088,198.6012 5150.3068,207.7122 5149.3078,212.6902 Z M5138.5028,193.2752 C5135.3178,191.3752 5134.5558,188.4842 5134.9758,185.3462 C5135.9168,187.1622 5137.0748,188.8072 5138.3938,190.3792 C5138.0418,191.4382 5137.9518,192.5272 5138.5028,193.2752 Z M5155.1658,200.5122 C5155.8048,199.4192 5156.7468,198.2352 5158.0758,196.9102 C5158.2998,197.9582 5159.2558,200.6592 5160.4218,203.8672 C5158.7748,202.7742 5156.9948,201.6562 5155.1658,200.5122 Z M5169.3998,243.0152 C5169.7758,240.5162 5170.2628,237.9912 5170.8628,235.4232 C5170.9838,235.5822 5171.0968,235.7292 5171.2078,235.8682 C5171.2528,238.2442 5171.3158,240.6282 5171.3808,243.0152 L5169.3998,243.0152 Z M5148.7568,224.3222 C5152.7158,230.4532 5156.6328,236.7652 5160.1208,243.0152 L5140.8678,243.0152 C5143.4798,236.2912 5146.8198,229.6022 5148.7568,224.3222 Z M5132.2708,243.0152 C5132.4408,237.9922 5134.2398,233.2202 5137.6568,223.7172 C5137.9638,228.3032 5137.9188,232.8992 5137.5248,237.5012 C5137.0718,239.3322 5136.6788,241.1712 5136.3158,243.0152 L5132.2708,243.0152 Z M5130.8738,209.1262 C5131.7328,209.5382 5130.6908,212.3382 5130.8738,209.1262 Z M5134.7838,203.1052 C5132.7218,204.1372 5131.0258,203.9202 5131.7708,200.0452 C5132.0148,199.8622 5132.2538,199.7112 5132.4928,199.5582 C5133.2338,200.7152 5133.9948,201.8962 5134.7838,203.1052 Z M5148.2238,223.4982 C5147.7568,225.6112 5146.4428,228.0122 5144.2438,230.7132 C5142.6078,234.3802 5140.9698,238.0462 5139.3328,241.7122 C5141.7878,234.3012 5142.3598,226.7482 5141.0458,219.0542 C5140.7728,218.0542 5138.6788,220.8212 5138.5798,220.9932 C5139.2488,218.8622 5140.1088,216.4622 5140.2158,214.2132 C5141.1358,214.4852 5141.9558,214.7892 5142.7218,215.1142 C5144.5338,217.8512 5146.3818,220.6542 5148.2238,223.4982 Z M5163.0318,243.0152 L5161.1948,243.0152 C5158.5348,236.4072 5155.4108,229.6252 5151.9878,222.7932 C5157.6458,228.1142 5162.3138,236.0272 5163.0318,243.0152 Z M5151.7718,209.8992 C5154.3628,213.2152 5158.4738,220.0532 5160.1478,222.1412 C5156.2238,217.2462 5150.5868,216.8232 5151.7718,209.8992 Z M5127.7348,201.6312 C5128.1088,205.6202 5127.3328,209.1692 5125.4068,212.2762 C5124.8818,203.3092 5122.5208,204.0992 5127.7348,201.6312 Z M5123.3508,243.0152 C5124.8528,237.5092 5126.9018,232.4632 5128.6708,231.0672 C5125.9908,232.9002 5124.6708,239.1882 5123.1508,243.0152 L5122.6498,243.0152 C5123.8998,237.2892 5125.4388,231.8732 5127.1138,226.2302 C5126.9488,227.4792 5127.3128,228.5912 5128.2298,229.5612 C5131.1638,227.9262 5131.3018,214.0282 5133.7768,210.5692 C5142.6088,215.1572 5130.4578,234.2442 5129.1358,241.3722 C5129.0298,241.9392 5128.9108,242.4822 5128.7848,243.0152 L5123.3508,243.0152 Z M5179.6398,240.4332 C5179.3288,241.4882 5179.0358,242.3902 5178.8158,243.0152 L5178.4778,243.0152 C5178.4428,241.6652 5178.4058,240.3182 5178.3738,238.9802 C5178.7938,239.4672 5179.2138,239.9512 5179.6398,240.4332 Z M5142.5268,149.9752 C5144.2078,144.4862 5146.0478,138.8612 5147.7468,134.3512 C5148.0498,140.5202 5145.5698,145.3992 5142.5268,149.9752 Z M5146.0318,127.9592 C5146.1028,128.0972 5146.1728,128.2352 5146.2418,128.3732 C5141.9598,134.6012 5139.0188,147.8742 5136.6848,158.4982 C5134.7788,161.5622 5133.2468,164.7702 5132.7648,168.4162 C5132.5178,170.2912 5132.3978,172.0192 5132.3858,173.6262 C5132.3098,173.7092 5132.2338,173.7822 5132.1568,173.8312 C5132.5338,160.3912 5138.1048,142.9502 5146.0318,127.9592 Z M5144.5698,124.9122 C5144.7158,125.3012 5144.8878,125.6802 5145.0678,126.0572 C5143.0888,129.2312 5141.2488,132.4592 5139.5318,135.6702 C5140.3818,133.5672 5142.1008,129.2182 5144.2188,124.1102 C5144.3458,124.3842 5144.4718,124.6582 5144.5698,124.9122 Z M3856.9148,226.6702 C3857.1828,225.9722 3857.4618,225.2772 3857.7438,224.5812 C3860.7628,229.0902 3865.2908,232.5502 3870.7428,235.5692 C3862.8838,231.2172 3860.1498,224.5462 3861.7578,215.6942 C3866.1168,206.8922 3871.4348,198.3382 3877.0668,189.9132 C3878.7358,187.9542 3880.3988,186.2702 3881.9728,185.0742 C3886.5598,202.1202 3906.7018,225.5882 3898.9718,243.0152 L3850.8088,243.0152 C3853.5038,235.5132 3856.4458,227.8992 3856.9148,226.6702 Z M3855.5058,198.1502 C3855.3068,198.8852 3855.1298,199.6042 3854.9648,200.3132 C3854.9158,199.9532 3854.8708,199.5982 3854.8248,199.2422 C3855.0498,198.8812 3855.2708,198.5322 3855.5058,198.1502 Z M3901.8668,111.8482 C3898.4408,107.0132 3894.7028,105.4592 3890.6518,107.1872 C3890.5938,107.4922 3890.5628,107.7932 3890.5448,108.0942 C3884.0568,98.5552 3876.3188,89.4102 3878.6938,76.3252 C3879.2268,73.3872 3881.0978,70.9952 3882.2388,68.3252 C3883.3028,65.8352 3884.7218,63.4542 3886.3728,61.1722 C3893.2878,79.5792 3901.1798,107.3792 3901.8668,111.8482 Z M3891.0218,56.6872 C3903.0448,75.5652 3908.1818,92.4322 3908.8708,116.0662 C3905.7768,114.1162 3900.1868,76.6762 3891.0218,56.6872 Z M3899.8228,142.3612 C3899.7648,140.4492 3898.6448,138.2152 3897.6078,136.8052 C3898.3338,133.9822 3898.6598,130.8032 3898.4548,127.1482 C3898.2818,124.0442 3897.5168,121.1592 3896.3898,118.4082 C3900.4468,122.3782 3905.4638,126.2352 3907.4908,130.3322 C3904.9728,134.3062 3902.4068,138.3192 3899.8228,142.3612 Z M3921.5008,118.9442 C3922.7198,121.0372 3923.0338,123.2422 3922.4398,125.5562 C3920.9138,124.3662 3919.6398,123.2462 3918.5648,122.1702 C3919.3688,120.6362 3920.1798,119.1142 3921.0028,117.6052 C3921.1658,118.0522 3921.3408,118.4952 3921.5008,118.9442 Z M3923.0438,114.8962 C3922.9768,114.7032 3922.9078,114.5042 3922.8398,114.3092 C3922.8948,114.2132 3922.9488,114.1182 3923.0028,114.0242 C3923.0198,114.3592 3923.0338,114.6602 3923.0438,114.8962 Z M3927.3008,125.6112 C3927.2058,122.9772 3927.9148,117.8532 3928.9498,111.3892 C3928.3228,116.1702 3927.7818,120.9232 3927.3008,125.6112 Z M3931.0308,217.7542 C3925.6888,208.2342 3921.7308,196.5472 3922.2868,185.5632 C3923.3188,189.2072 3930.3618,209.2352 3930.7708,204.7872 C3928.1918,192.4712 3937.9228,230.0392 3931.0308,217.7542 Z M3925.1498,240.0162 C3919.4438,230.9792 3915.3738,224.9102 3913.4668,215.0092 C3911.4428,204.4992 3893.1168,176.5342 3906.4088,169.8852 C3910.1488,174.9212 3910.5228,195.3872 3914.8438,197.7072 C3916.2528,196.2832 3916.8018,194.6302 3916.5238,192.7582 C3919.3708,201.9892 3921.9748,210.7132 3923.9818,220.2342 C3920.8428,215.5342 3918.8238,202.0762 3913.6088,199.5572 C3917.4848,201.4292 3927.1648,231.7622 3925.1498,240.0162 Z M3935.6428,243.0152 L3931.3408,243.0152 C3932.1848,240.3862 3932.8428,238.4212 3932.9928,238.1002 C3933.5338,238.8992 3934.5238,240.7722 3935.6428,243.0152 Z M3912.9138,226.1442 C3914.2908,228.6342 3916.6648,235.8582 3919.1298,243.0152 L3904.6238,243.0152 C3905.9838,241.5942 3907.4768,241.1202 3909.8928,242.2872 C3902.2988,238.6202 3911.7148,231.3602 3912.9138,226.1442 Z M3900.5068,189.1462 C3907.8318,208.7682 3910.6578,218.1842 3905.3558,236.7252 C3904.5708,227.4782 3903.0218,218.3492 3900.7078,209.3382 C3900.1078,202.5942 3900.0408,195.8642 3900.5068,189.1462 Z M3902.5008,152.0852 C3904.6738,151.8702 3906.9928,152.6582 3909.4588,154.4682 C3911.1788,163.0822 3904.4878,159.4122 3900.2028,155.7872 C3900.9828,154.5542 3901.7498,153.3212 3902.5008,152.0852 Z M3897.5928,159.9612 C3897.5188,165.3712 3894.9438,169.1272 3889.8978,171.2452 C3892.5058,167.4652 3895.0748,163.6932 3897.5458,159.9172 C3897.5618,159.9332 3897.5768,159.9462 3897.5928,159.9612 Z M3910.8218,167.7712 C3911.0988,172.4342 3909.5058,168.3802 3910.8218,167.7712 Z M3919.1368,172.3852 C3916.2318,167.8722 3915.0518,162.6752 3915.5978,156.7902 C3923.4038,160.3502 3919.9418,159.1412 3919.1368,172.3852 Z M3928.0108,189.6662 C3926.2418,185.9802 3924.4718,182.2942 3922.7028,178.6082 L3923.8738,161.5662 C3928.6928,164.9292 3927.1308,183.9402 3928.0108,189.6662 Z M3915.3098,128.4772 C3924.7378,132.7662 3926.4518,140.7522 3920.4378,152.4412 C3912.7258,147.6272 3910.6668,147.1822 3919.8278,142.7742 C3918.7328,143.3012 3915.7148,135.0272 3914.2688,130.5142 C3914.6158,129.8332 3914.9628,129.1542 3915.3098,128.4772 Z M3890.7148,156.6932 C3887.9478,161.0932 3885.2068,165.5182 3882.5238,169.9592 C3882.5988,164.0922 3885.7588,157.1212 3890.7148,156.6932 Z M3858.0728,204.5472 C3857.5538,207.2972 3857.0348,210.0472 3856.5158,212.7982 C3856.6178,204.2492 3857.1368,201.4992 3858.0728,204.5472 Z M3865.4398,161.2792 C3867.4078,156.0762 3869.0788,151.5722 3869.4548,149.8752 C3871.8088,152.1352 3873.2788,154.2092 3874.0838,156.1642 C3871.1738,157.9262 3868.2158,159.6392 3865.4398,161.2792 Z M3859.6008,182.1392 C3855.7978,187.7542 3858.4048,180.0352 3861.8988,170.6582 C3865.6048,166.4582 3870.1828,163.2372 3874.8358,160.2202 C3874.5218,167.4702 3865.4648,173.4792 3859.6008,182.1392 Z M3866.3048,186.8372 C3868.8368,183.7942 3875.1158,173.7442 3879.0418,168.9022 C3880.8618,179.1442 3872.2258,179.7222 3866.3048,186.8372 Z M3897.9578,215.5072 C3895.4688,210.1372 3892.9788,204.7662 3890.4898,199.3952 C3880.3738,187.1612 3882.4168,179.1042 3896.6168,175.2232 C3896.7798,178.5172 3898.0898,182.0452 3899.1038,185.1562 C3898.9448,184.8872 3895.7788,180.8132 3895.3528,182.3152 C3893.3578,193.6032 3894.2258,204.6662 3897.9578,215.5072 Z M3940.8278,220.4592 C3944.3818,224.7682 3952.4678,234.5542 3956.5528,243.0152 L3948.4148,243.0152 C3946.4628,234.0192 3937.3428,232.0712 3940.8278,220.4592 Z M3935.4598,233.0332 C3935.8918,233.6702 3938.2098,238.8602 3940.3698,243.0152 L3937.6368,243.0152 C3935.9078,238.8762 3934.4658,235.0332 3935.4598,233.0332 Z M3911.7718,95.5922 C3914.3398,100.9512 3916.6958,106.4002 3918.8618,111.9272 C3917.6708,113.9252 3916.4538,115.9372 3915.2138,117.9602 C3911.6758,111.9682 3913.4578,106.3212 3911.7718,95.5922 Z M3897.6548,60.1632 C3897.2838,59.4942 3895.5478,57.0792 3892.9678,53.6382 C3893.4328,53.1862 3893.9048,52.7402 3894.3828,52.2982 C3895.7178,55.4992 3896.8378,58.2132 3897.6548,60.1632 Z M3892.8488,137.5882 C3888.9478,140.9752 3883.3338,145.7272 3884.2988,142.0712 C3883.2828,145.9232 3883.1698,148.2672 3882.2888,150.8562 C3880.4798,152.1372 3878.5398,153.4082 3876.5368,154.6582 C3872.7558,145.5222 3866.9928,128.6672 3867.9878,123.7722 C3867.9778,123.8232 3863.2388,138.7832 3860.3028,141.8662 C3863.6198,117.6012 3857.0498,94.3052 3874.2778,74.6802 C3862.2138,107.4052 3894.2188,113.1732 3892.8488,137.5882 Z M3853.1488,169.7302 L3858.6948,150.3852 C3859.0518,148.9502 3859.3518,147.5162 3859.6198,146.0852 C3860.8328,152.8612 3859.9718,159.0662 3857.2058,166.4282 C3855.5208,167.6002 3854.1218,168.7062 3853.1488,169.7302 Z M2699.9798,243.0152 L2697.4148,243.0152 C2697.4838,241.4822 2697.5468,239.9512 2697.5918,238.4342 C2698.5108,239.9552 2699.2988,241.4832 2699.9798,243.0152 Z M2706.9898,230.1042 C2712.0038,232.0162 2716.8668,234.2302 2721.5928,236.7112 C2719.6238,238.8172 2717.7388,240.9192 2715.9488,243.0152 L2714.9178,243.0152 C2712.5758,239.7892 2710.1338,236.7002 2707.5898,233.7552 C2707.3188,232.3342 2707.0838,231.1432 2706.9898,230.1042 Z M2709.0858,216.7662 C2707.0248,217.4532 2705.3198,218.1172 2704.1448,218.7622 C2704.5588,218.0092 2704.9728,217.2562 2705.3858,216.5042 C2706.4818,216.5982 2707.7608,216.7222 2709.0858,216.7662 Z M2719.5738,196.6952 C2718.0168,195.4302 2716.5218,194.2282 2715.0518,193.0542 C2715.2288,191.8422 2715.3618,190.6582 2715.4598,189.4982 C2717.4358,192.1742 2719.0568,194.7152 2719.5738,196.6952 Z M2736.3318,157.3872 C2737.0908,153.2772 2739.4228,149.9832 2742.8148,147.2752 C2745.5008,157.3532 2748.9238,167.7412 2752.2638,177.6242 C2744.3548,172.7422 2734.1438,169.2282 2736.3318,157.3872 Z M2734.8318,223.5632 C2735.0488,220.5682 2735.4538,217.5642 2736.1458,214.5232 C2736.2928,213.8782 2736.4618,213.2132 2736.6438,212.5362 C2745.4028,209.2972 2755.1468,205.2262 2759.2048,198.4022 C2759.5428,199.4672 2759.8718,200.5162 2760.1878,201.5462 C2751.5748,208.6332 2742.8878,216.0452 2734.8318,223.5632 Z M2720.8618,218.7612 C2721.1258,221.3852 2721.6418,224.1402 2722.7428,227.0532 C2723.5868,228.9912 2724.4318,230.9282 2725.2768,232.8662 C2724.9418,233.2072 2724.6098,233.5492 2724.2788,233.8912 C2718.1988,229.6732 2713.6198,226.4502 2710.2518,223.9932 C2712.3678,222.5682 2715.7148,220.9762 2720.8618,218.7612 Z M2729.6778,228.4772 C2728.8128,229.3222 2727.9578,230.1652 2727.1138,231.0112 C2725.5288,226.2422 2725.0078,221.7552 2724.7528,217.1092 C2725.4988,216.7942 2726.2678,216.4722 2727.0748,216.1352 C2728.1168,215.7002 2729.2488,215.2622 2730.4338,214.8182 C2731.1408,219.0682 2730.5128,223.6302 2729.6778,228.4772 Z M2735.0738,219.5232 C2730.1278,229.6032 2731.4898,209.2562 2735.0738,219.5232 Z M2753.9678,198.3072 C2752.7498,202.1762 2746.0828,205.4252 2737.9288,208.2412 C2740.1868,201.2472 2743.3928,193.2652 2745.1358,186.1072 C2751.0628,189.4452 2755.6698,192.8972 2753.9678,198.3072 Z M2724.1208,203.8392 C2726.6818,206.0802 2728.3318,208.4512 2729.3478,210.9422 C2727.7458,211.4092 2726.1398,211.8642 2724.5498,212.3072 C2724.4568,209.6102 2724.3598,206.8152 2724.1208,203.8392 Z M2714.4838,196.2292 C2720.2598,201.4952 2720.3608,207.0752 2720.5588,213.4132 C2719.3858,213.7372 2718.2338,214.0552 2717.1178,214.3672 C2719.0818,211.8832 2718.9808,206.9802 2714.1628,197.5802 C2714.2748,197.1272 2714.3878,196.6742 2714.4838,196.2292 Z M2722.6518,243.0152 C2723.8888,241.7832 2725.1438,240.5702 2726.4158,239.3732 C2726.8258,239.6112 2727.2438,239.8282 2727.6498,240.0702 C2727.2098,241.0422 2726.8258,242.0262 2726.4678,243.0152 L2722.6518,243.0152 Z M2708.7568,243.0152 C2708.7338,242.5062 2708.7058,242.0102 2708.6708,241.5332 C2709.1758,242.0222 2709.6828,242.5162 2710.1918,243.0152 L2708.7568,243.0152 Z M2762.6208,210.0902 C2757.0248,221.2212 2749.4468,233.6922 2743.1938,243.0152 L2735.2778,243.0152 C2735.0068,239.2852 2734.7548,235.6292 2734.6658,231.9962 C2743.6928,224.2872 2753.2208,217.0902 2762.5028,209.6342 C2762.5428,209.7862 2762.5818,209.9392 2762.6208,210.0902 Z M2773.4008,209.2582 C2772.3558,211.3892 2771.2498,213.5122 2770.1238,215.5782 C2767.8368,212.7952 2766.4708,209.8582 2766.0338,206.7652 C2767.6458,205.4442 2769.2458,204.1102 2770.8318,202.7622 C2771.6848,204.9342 2772.5528,207.0942 2773.4008,209.2582 Z M2775.1228,205.6152 C2774.5908,203.9572 2774.0508,202.2362 2773.5038,200.4592 C2775.3708,198.8322 2777.2078,197.1742 2779.0178,195.4882 C2778.0788,198.6462 2776.7168,202.0992 2775.1228,205.6152 Z M2785.5888,242.0432 C2785.1768,240.9152 2781.6198,226.5352 2784.2978,226.5352 C2782.9368,226.5352 2780.6388,221.5852 2777.9028,213.8882 C2781.4018,205.7392 2783.8948,197.5902 2783.4998,191.3532 C2784.4288,190.5142 2785.3708,189.6902 2786.3198,188.8752 C2786.2408,206.4692 2785.9668,224.0192 2785.5888,242.0432 Z M2791.3728,243.0152 C2791.4538,239.1942 2791.5418,235.3752 2791.5828,231.5732 C2792.3148,235.4402 2792.8588,239.2422 2793.2298,243.0152 L2791.3728,243.0152 Z M2774.2188,221.8132 C2774.9518,220.3402 2775.6698,218.8452 2776.3648,217.3402 C2777.7278,221.4552 2778.8378,225.6602 2779.4148,230.0732 C2777.6828,227.3192 2775.9508,224.5662 2774.2188,221.8132 Z M2770.0948,229.6842 C2773.0898,234.1132 2776.2088,238.6162 2778.6028,243.0152 L2762.3998,243.0152 C2764.2928,239.8232 2767.1178,235.1162 2770.0948,229.6842 Z M2762.9748,211.5102 C2763.8598,215.1552 2764.4488,218.3962 2764.6448,221.1392 C2765.0148,221.7842 2765.3998,222.4342 2765.7998,223.0882 C2765.3988,223.7512 2765.0008,224.3982 2764.6098,225.0262 C2764.7418,223.8792 2764.7478,222.5772 2764.6448,221.1392 C2764.5438,220.9632 2764.4348,220.7852 2764.3368,220.6112 C2764.2348,222.9102 2763.8348,225.1392 2763.1668,227.3032 C2760.5118,231.4202 2758.2968,234.4402 2757.2348,235.4702 C2756.1348,232.1662 2759.6638,220.8452 2762.9748,211.5102 Z M2744.2078,243.0152 C2746.7998,238.5452 2750.8628,234.9972 2753.9358,230.8152 C2757.5238,235.3642 2756.6088,238.7072 2751.1908,240.8482 C2750.2158,241.5712 2749.2408,242.2932 2748.2658,243.0152 L2744.2078,243.0152 Z M2819.8208,177.2112 C2817.8708,187.7752 2800.7048,196.2522 2794.8658,204.9222 C2796.0298,199.1942 2797.1928,193.4652 2798.3568,187.7372 C2798.8828,184.7522 2799.2248,181.7662 2799.4498,178.7842 C2805.8178,174.3972 2812.4988,170.4232 2819.4228,166.8322 C2820.2208,170.2072 2820.4808,173.6362 2819.8208,177.2112 Z M2795.6958,181.4452 C2795.1538,188.8672 2794.2628,196.3142 2792.6948,203.8842 C2792.2608,197.9592 2791.6368,191.4882 2791.2108,184.8522 C2792.6858,183.6902 2794.1798,182.5532 2795.6958,181.4452 Z M2797.0228,139.5142 C2796.5998,150.8002 2796.6478,161.7252 2796.1968,172.6112 C2794.9288,173.5552 2793.6778,174.5222 2792.4528,175.5222 C2791.9178,175.9582 2791.3698,176.4042 2790.8238,176.8472 C2790.4198,163.4482 2791.4418,149.9922 2797.0228,139.5142 Z M2786.4168,172.0942 C2786.8508,169.4302 2787.2838,166.7652 2787.7178,164.1002 C2788.0028,169.0372 2788.1738,173.9792 2788.2578,178.9242 C2788.1788,178.9882 2788.1018,179.0502 2788.0228,179.1142 L2786.4168,172.0942 Z M2738.2798,182.3612 C2735.3618,189.8522 2732.0798,200.3522 2730.5978,206.5142 C2730.1858,205.7132 2722.4988,194.9342 2715.6858,185.9802 C2716.2128,174.6072 2715.2598,165.6102 2730.7058,156.4312 C2720.7378,170.5372 2728.9198,177.0892 2738.2798,182.3612 Z M1753.8278,243.0152 L1752.0818,243.0152 C1752.6888,242.2322 1753.3198,241.4732 1753.9958,240.7582 C1753.9988,241.4452 1753.9368,242.2042 1753.8278,243.0152 Z M1759.0318,236.3242 C1759.1798,238.5542 1759.3278,240.7842 1759.4748,243.0152 L1757.0778,243.0152 C1757.5368,239.7662 1758.1878,236.9342 1759.0318,236.3242 Z M1768.4828,243.0152 C1768.7098,242.3412 1768.9608,241.7782 1769.2488,241.3752 C1770.0538,241.7932 1770.6538,242.3522 1771.0968,243.0152 L1768.4828,243.0152 Z M1766.6668,240.0922 C1767.4308,240.4582 1766.5038,242.9492 1766.6668,240.0922 Z M1791.9988,243.0152 C1787.6458,238.2222 1784.6848,235.3842 1790.8688,229.2232 C1791.2358,230.9462 1793.8218,237.6782 1795.7128,243.0152 L1791.9988,243.0152 Z M1785.2588,240.7792 C1785.7488,241.4052 1786.2998,242.1772 1786.8778,243.0152 L1785.1588,243.0152 C1785.0928,242.3602 1785.1138,241.6282 1785.2588,240.7792 Z M1927.2438,229.8072 C1932.3698,233.2312 1936.7398,237.8072 1940.6598,243.0152 L1927.5538,243.0152 C1927.2728,239.5712 1927.1978,235.3212 1927.2438,229.8072 Z M1905.7728,219.7362 C1914.0608,222.2142 1911.3888,220.6922 1910.2728,232.7392 C1906.9988,229.4452 1905.4988,225.1112 1905.7728,219.7362 Z M1888.7228,232.4852 C1899.6208,228.6372 1899.6928,235.8722 1900.1378,243.0152 L1890.1418,243.0152 C1888.9058,239.6622 1888.2658,236.1872 1888.7228,232.4852 Z M1881.6358,235.1052 C1881.8328,237.7182 1883.4198,240.6502 1884.6108,243.0152 L1884.4158,243.0152 C1883.3488,242.0332 1880.5678,239.7722 1880.0288,241.0182 C1879.8548,241.6862 1879.7028,242.3522 1879.5638,243.0152 L1866.4488,243.0152 C1866.5818,238.6212 1871.6378,235.9822 1881.6358,235.1052 Z M1776.4888,233.2462 C1784.1618,238.2702 1784.3918,236.6802 1783.1168,243.0152 L1782.7218,243.0152 C1777.5618,239.3672 1771.3218,238.3612 1776.4888,233.2462 Z M1761.8028,242.8942 C1761.3358,234.9162 1759.2348,235.6192 1763.8738,233.4232 C1764.2068,236.9732 1763.5168,240.1292 1761.8028,242.8942 Z M211.8628,243.0152 L211.6488,243.0152 C211.7198,242.8392 211.7868,242.6802 211.8478,242.5412 C211.8568,242.6992 211.8568,242.8582 211.8628,243.0152 Z M225.9638,243.0152 L220.2468,243.0152 C221.0758,238.3212 221.7888,233.1452 223.2138,231.1532 C227.0918,233.1662 227.2488,237.7532 225.9638,243.0152 Z M240.6918,242.4312 C240.9298,242.6192 241.1648,242.8192 241.4008,243.0152 L240.5258,243.0152 C240.5808,242.8212 240.6428,242.6192 240.6918,242.4312 Z M239.1428,243.0152 L231.4908,243.0152 C231.3858,242.1392 231.2718,241.2622 231.1218,240.3832 C230.8238,239.2942 228.5458,242.3052 228.4388,242.4922 C229.1668,240.1732 230.1008,237.5632 230.2178,235.1172 C235.9608,236.8082 238.9358,239.4412 239.1428,243.0152 Z M216.6408,221.4302 C217.0478,225.7702 216.2038,229.6292 214.1088,233.0092 C213.5388,223.2552 210.9688,224.1152 216.6408,221.4302 Z M169.7238,243.0152 L-0.0002,243.0152 L-0.0002,306.0002 L5604.9948,306.0002 L5604.9948,243.0152 L5188.1008,243.0152 C5193.0508,236.4932 5199.9598,229.9812 5204.4618,223.8672 C5204.6128,226.1672 5205.1278,228.3522 5206.0028,230.4252 C5204.6998,214.7032 5256.0358,124.6742 5227.3148,104.9882 C5243.9698,116.4042 5211.4968,197.1542 5203.7048,209.5292 C5200.1998,192.2992 5213.1918,151.2202 5216.4248,137.3132 C5213.2488,150.9712 5190.3628,219.2012 5181.7198,228.3602 C5181.6708,222.7572 5181.9908,216.7122 5182.5758,211.5402 C5180.3468,218.8382 5178.6548,225.0242 5178.1588,228.0122 C5178.0438,220.4832 5177.9968,213.0892 5178.0248,205.7182 C5182.9188,194.7032 5190.9598,184.5982 5187.5618,180.5632 C5186.9948,179.8902 5182.4748,188.4962 5178.0868,197.4182 C5178.1918,188.0632 5178.4128,178.6652 5178.7568,168.9792 C5179.5138,147.6602 5193.9288,120.1812 5189.3478,99.2462 C5187.9108,92.6832 5175.1698,78.9792 5175.1548,78.7612 C5175.5948,84.8622 5184.9198,90.0392 5184.2798,95.3662 C5182.0088,114.2852 5175.0458,134.0212 5172.1828,153.5432 C5172.1538,153.4952 5162.3508,132.6682 5153.9598,114.9842 C5158.1508,109.0702 5162.6528,104.0862 5167.1968,100.6762 C5162.1228,104.4832 5157.5968,109.0742 5153.5338,114.0862 C5152.6568,112.2402 5151.7998,110.4322 5150.9718,108.6922 C5154.1928,101.8542 5157.3378,96.1222 5159.3548,94.8272 C5155.6898,97.1802 5152.3458,100.7592 5149.2798,105.1422 C5145.2048,96.5942 5142.2198,90.4132 5142.1888,90.5882 C5141.3978,95.0472 5143.9948,101.2872 5147.3918,108.0052 C5146.1358,110.0102 5144.9248,112.1352 5143.7658,114.3712 C5139.5228,109.1552 5135.3048,104.4482 5130.6688,100.1722 C5131.4068,98.3982 5132.2088,97.2312 5133.0828,96.8582 C5132.0728,97.2892 5131.1518,98.3322 5130.3078,99.8432 C5122.8058,92.9912 5114.1868,87.2402 5102.5728,82.2482 C5105.9378,83.6952 5117.9548,94.0042 5128.3468,104.5642 C5123.5658,119.3312 5122.0318,150.2112 5121.3918,157.4502 C5121.1798,154.9302 5117.2138,124.3302 5117.4758,124.1372 C5113.1538,127.3302 5114.1458,140.0352 5116.0278,152.7512 C5114.2788,144.3862 5111.9308,136.1752 5108.6428,128.4772 C5109.0478,129.4272 5110.9818,142.8412 5112.4598,154.6832 C5091.9228,124.5082 5061.3588,114.0602 5027.0998,100.8742 C5066.3098,115.9662 5092.3658,135.0602 5113.9638,168.0452 C5114.1138,169.6922 5114.2058,171.0042 5114.2208,171.8452 C5114.5818,192.3202 5105.2338,195.4092 5096.9578,214.8522 C5097.4888,196.7662 5100.7408,161.1042 5077.8048,177.5692 C5101.1798,160.7882 5091.9558,221.9512 5087.7368,243.0152 C5088.0068,212.6932 5093.8658,181.4212 5058.9178,206.1192 C5089.3218,184.6322 5085.6518,219.3482 5083.0458,243.0152 C5064.7528,238.2662 5061.1848,233.3082 5057.7198,227.6642 C5057.2588,226.9142 5060.1318,234.3022 5064.3198,243.0152 C4788.97607,224.570533 4591.98752,215.3482 4473.35416,215.3482 C4354.24552,215.3482 4194.62107,224.570533 3994.4808,243.0152 C3994.9998,242.4932 3995.5138,242.0242 3996.0158,241.6412 C4002.9308,236.3742 4025.9648,215.1602 4026.7418,204.0362 C4026.4388,204.1002 4024.3648,191.3352 4022.0738,194.9282 C4011.0718,212.1872 3999.4868,224.9942 3985.3758,239.6982 C3986.2818,211.8672 3962.6278,124.1382 4020.2508,163.3662 C3964.1448,125.1702 3977.4658,179.5202 3978.4398,226.1852 C3974.0498,210.3182 3952.0218,94.2212 3991.5298,121.5412 C3957.7298,98.1682 3961.5488,148.2122 3962.4018,176.1582 C3949.9698,148.0262 3933.8578,143.4752 3936.1488,113.1572 C3936.6548,106.4622 3940.2628,96.9752 3943.6678,87.4522 C3945.9828,85.4002 3948.4608,83.4242 3951.1558,81.5482 C3967.5208,70.1532 3986.9368,63.1282 4005.4718,56.1722 C4014.0498,52.9532 4032.6568,39.7422 4035.2358,38.8202 C4003.6458,50.1172 3971.3398,59.7582 3946.3288,79.7472 C3948.5528,72.9412 3950.1858,66.5212 3949.9588,61.5442 C3949.2908,58.8202 3946.4588,45.5032 3944.6318,49.6242 C3938.9958,62.3362 3935.1528,76.1382 3932.3938,90.1372 C3935.4918,69.8212 3937.7258,47.9112 3931.1988,43.2682 C3931.3688,43.3892 3925.5598,88.4452 3925.2438,92.0682 C3924.4408,83.3242 3922.9948,55.1672 3919.1028,32.8172 C3927.0818,25.8222 3937.4748,16.1782 3937.1198,16.3212 C3929.8608,19.2192 3923.4988,22.3482 3917.7418,25.7522 C3915.2498,14.1062 3911.9308,5.1422 3907.4628,3.3052 C3910.3308,4.4842 3912.8438,14.1902 3914.9708,27.4402 C3908.3108,31.6232 3902.4588,36.2212 3896.9498,41.3192 C3888.7958,23.2172 3879.0818,7.4862 3867.5098,0.3302 C3871.5568,2.8322 3878.1758,15.6452 3884.3168,29.0802 C3883.3738,30.9702 3881.9638,33.7672 3880.2348,37.1832 C3868.4088,22.3002 3854.7978,6.2642 3853.9928,9.2622 C3852.0018,16.6742 3867.8568,30.7202 3878.3358,40.9272 C3867.4098,62.4542 3847.9108,100.5042 3846.6268,102.4412 C3843.2728,81.1842 3828.6878,54.0462 3830.5188,33.1092 C3831.2128,25.1662 3842.0878,20.8162 3842.7648,12.1082 C3842.5888,14.3732 3823.9998,32.6662 3822.8578,44.0622 C3820.5598,66.9772 3840.8528,90.2762 3839.9228,113.7482 C3839.4298,126.1862 3839.2348,138.2642 3839.1308,150.2842 C3832.5978,137.1582 3825.8118,124.5562 3824.6138,125.9272 C3821.8158,129.1272 3834.8268,148.1672 3839.0958,154.9992 C3839.0058,168.0612 3838.9888,181.1062 3838.7858,194.5102 C3838.1098,190.7582 3836.5038,184.8262 3834.3438,177.7762 C3835.1608,184.1222 3835.3718,190.4512 3834.6698,195.8822 C3834.4868,196.0912 3834.2838,196.4932 3834.0488,197.1502 C3828.0908,157.5562 3798.9958,122.3272 3789.1138,82.8342 C3788.9928,82.3512 3788.4448,106.7722 3789.0688,109.2802 C3794.8648,132.5572 3810.8998,146.0872 3805.6488,170.0672 C3795.5868,155.2192 3754.0358,57.1132 3774.9568,43.7872 C3738.9868,66.6962 3804.1398,183.2892 3801.9588,196.7352 C3803.5178,193.8402 3804.4208,190.7252 3804.6648,187.3892 C3807.7508,191.2832 3821.4878,206.4542 3829.2958,215.3482 C3828.1768,219.8452 3827.6828,223.0352 3829.0328,221.6592 C3830.0478,220.6252 3831.0598,219.5832 3832.0668,218.5342 C3833.7938,220.5452 3834.8398,221.8342 3834.7688,221.9412 C3836.3188,224.8842 3835.6648,234.3022 3834.2678,243.0152 C3602.32668,226.694533 3425.8733,218.5342 3304.90765,218.5342 C3195.96752,218.5342 3027.56224,226.694533 2799.6918,243.0152 C2808.2118,223.0422 2820.3298,202.6622 2826.6368,187.6212 C2831.3208,176.4502 2835.8058,166.4012 2840.5048,157.2432 C2871.0958,145.0142 2904.1818,138.2992 2933.0398,132.9142 C2905.4858,138.0552 2873.5478,141.4592 2844.3738,150.0122 C2859.0978,123.6412 2876.8798,105.0882 2909.5168,88.6202 C2873.4558,106.8172 2853.9138,120.2422 2838.5308,151.8112 C2833.0338,153.5842 2827.6568,155.5632 2822.4478,157.7942 C2819.5678,145.5942 2809.0518,136.1492 2810.9868,121.7752 C2811.3368,119.1772 2812.5888,116.8752 2813.3628,114.4172 C2816.7138,103.7672 2841.4218,72.1902 2847.7378,68.6312 C2825.9918,80.8842 2817.4188,96.4282 2805.2478,117.9532 C2804.7458,104.4932 2810.4168,80.4532 2814.3618,76.8432 C2806.6748,83.8772 2801.8738,103.2562 2797.8338,120.1782 C2794.5848,121.3352 2790.8858,122.8202 2786.8918,124.5332 C2782.1328,103.4912 2776.4008,80.4462 2786.7118,63.9222 C2773.2718,85.4622 2777.9788,105.2662 2782.3048,126.5432 C2774.2898,130.1252 2765.4398,134.4062 2756.9158,138.6772 C2755.7758,133.8042 2754.9438,129.9722 2754.5448,127.7232 C2755.1068,130.8912 2755.8788,134.6372 2756.7518,138.7592 C2752.9218,140.6792 2749.1598,142.5962 2745.5708,144.4482 C2744.4068,139.3252 2743.3958,134.2582 2742.6078,129.3982 C2744.3248,127.2642 2745.2798,125.6262 2744.9648,124.7662 C2744.7258,124.1132 2743.6758,124.5172 2742.0458,125.6962 C2739.9058,110.4832 2740.2768,97.8462 2745.6318,93.0342 C2737.6088,100.2432 2736.5078,113.2072 2738.7668,128.3922 C2725.6658,140.0612 2696.4828,173.7092 2695.9428,174.6212 C2691.2218,159.0302 2679.8258,142.2232 2676.1778,128.5512 C2675.2838,125.1972 2690.3268,120.5402 2691.0918,115.3982 C2691.1378,115.0892 2670.1808,124.6992 2667.8978,131.6252 C2665.0718,140.1992 2673.4098,158.1062 2679.5528,172.0682 C2677.0968,171.2302 2674.5158,170.4462 2671.7478,169.7182 C2673.0168,170.0512 2676.0948,171.2482 2679.9688,173.0152 C2682.4348,178.6412 2684.4838,183.5602 2685.2048,186.8632 C2686.1798,191.3292 2681.6858,197.7872 2682.5378,203.4102 C2683.3288,208.6412 2690.1878,212.3052 2691.4798,217.9102 C2677.5318,206.2282 2661.6198,197.3842 2644.4548,190.5952 C2638.6858,182.3452 2633.3258,175.2292 2629.0178,171.7832 C2612.2328,158.3602 2620.5578,170.0412 2630.3358,185.4862 C2624.9608,183.7342 2619.2858,182.1422 2613.2478,180.6302 C2606.6308,165.9602 2612.5568,148.0292 2608.0008,136.5372 C2604.5768,127.9002 2597.9238,155.8252 2596.3768,160.5032 C2596.6858,173.5322 2606.7448,193.9442 2612.7408,202.7142 C2615.2048,206.3172 2641.7068,227.7722 2641.1148,235.0512 C2642.1428,233.6912 2642.8378,232.1212 2643.1968,230.3422 C2650.3518,235.0512 2658.8348,238.4962 2665.9978,243.0152 C2497.21195,254.694455 2370.62256,260.534083 2286.22963,260.534083 C2219.57367,260.534083 2119.58973,254.694455 1986.2778,243.0152 C1985.9188,234.9612 1987.6198,227.4932 1993.7268,221.5712 C2001.7518,213.7862 2037.0088,216.2032 2039.9308,223.7712 C2033.8108,207.9242 1996.2988,207.4012 1985.8788,217.9542 C1979.2058,224.7122 1978.2748,233.6252 1979.3628,243.0152 C1968.5848,211.5322 1967.7018,174.6442 2002.3288,190.3452 C1969.0898,175.2742 1963.6228,200.0422 1965.2898,235.8852 C1948.2368,210.5822 1929.6618,212.6542 1931.9058,183.3542 C1932.6778,173.2692 1950.3558,148.8212 1949.3458,139.4492 C1948.9898,138.7392 1945.3938,126.3862 1942.6928,130.3802 C1930.2838,148.7322 1924.0418,172.0782 1920.6548,193.7382 C1919.7048,176.5612 1928.6688,159.3502 1928.4088,142.2142 C1928.4358,143.9852 1924.7688,119.6052 1923.8578,125.6152 C1921.8288,138.9942 1919.8238,152.3532 1918.0388,165.7692 C1916.2338,152.8872 1908.6558,95.3242 1895.4288,91.7582 C1903.4758,93.9272 1914.6738,176.2092 1915.2408,184.8042 C1900.3998,156.9442 1874.8838,101.5452 1844.6238,89.2782 C1850.7588,91.7662 1876.0288,128.3192 1882.9558,139.1672 C1879.9758,135.6452 1830.4898,89.2672 1827.4348,96.7252 C1825.2128,102.1492 1850.8188,117.6422 1862.8948,126.0432 C1864.5108,124.5672 1886.1858,173.1932 1888.3118,182.2622 C1883.7438,178.2592 1878.9908,176.9632 1874.0508,178.3762 C1871.1678,188.2502 1915.9668,197.8512 1884.9468,209.5292 C1895.0808,200.8512 1866.2838,206.6892 1865.9728,207.4622 C1863.8798,212.6612 1863.7528,223.2142 1855.4238,217.5982 C1853.2708,216.1462 1845.3308,191.8842 1845.2308,192.2042 C1846.1618,204.8192 1843.0918,209.5392 1836.0268,206.3772 C1842.8718,212.2922 1830.1928,230.5472 1825.0328,237.1652 C1824.4628,236.1402 1821.7218,231.6992 1817.9898,226.0232 C1822.1448,217.9002 1828.3798,205.3302 1827.5868,204.1592 C1826.5818,202.6732 1822.2368,213.5572 1817.9578,225.9742 C1817.3088,224.9882 1816.6308,223.9652 1815.9278,222.9152 C1817.6778,219.2872 1818.5308,216.3772 1817.1008,214.6792 C1816.8278,214.3552 1815.5218,216.4542 1813.7608,219.7092 C1804.8388,206.6402 1793.3968,191.5102 1790.0758,194.0012 C1787.5058,195.9292 1808.7958,217.7822 1810.0208,219.9532 C1810.6708,221.1072 1811.3058,222.1892 1811.9178,223.2092 C1809.4488,228.0022 1806.5738,233.9302 1804.3848,238.5932 C1798.4318,221.7262 1787.1838,196.1842 1777.9178,184.6182 C1781.1088,174.4942 1784.6848,164.7782 1786.2648,165.3602 C1781.2808,163.5252 1777.7638,171.7172 1775.0768,181.4652 C1780.2168,165.4992 1789.4998,150.7212 1798.9828,143.6052 C1788.4218,151.5292 1780.5098,163.2502 1774.3708,174.7402 C1776.8348,168.6302 1787.5348,141.2722 1792.0058,138.4022 C1781.4578,145.1712 1774.1468,162.1592 1768.6008,178.7492 C1767.1038,179.7252 1767.3108,180.3132 1767.7918,181.2002 C1764.5158,191.2702 1761.8668,200.9982 1759.5178,207.9802 C1759.7998,201.1942 1762.5748,142.7942 1768.6318,140.2082 C1760.9748,143.4772 1758.9568,185.9032 1758.2298,194.1162 C1757.4328,184.3582 1756.5398,174.6092 1755.5538,164.8682 C1756.5228,174.9872 1757.4738,201.7062 1757.0268,214.4872 C1755.5018,199.0462 1753.0198,182.6942 1746.8878,168.3392 C1747.5798,169.9592 1750.3628,196.9522 1750.7618,201.5122 C1752.8898,225.8512 1747.7578,219.8562 1737.4388,243.0152 C1737.2228,224.7402 1739.1988,197.8402 1719.4518,212.0162 C1733.5058,201.9262 1734.5618,222.4552 1732.5178,243.0152 C1727.5428,229.6492 1722.4848,223.3982 1702.6488,237.4162 C1718.3708,226.3062 1723.8478,232.0912 1725.2258,243.0152 C1427.26534,254.694455 1204.63592,260.534083 1057.33754,260.534083 C882.471918,260.534083 621.85534,254.694455 275.4878,243.0152 C275.6338,239.3792 275.9018,235.7832 276.2658,232.4932 C275.0848,236.4032 274.0468,239.9992 273.2288,243.0152 C265.5568,225.8262 287.1738,204.9872 281.7208,198.5122 C280.5338,197.1022 263.4118,233.0902 262.0568,236.9512 C254.5398,221.6872 252.8548,207.9362 250.6958,196.9112 C251.5428,201.2412 246.0058,216.8602 243.4918,222.4392 C236.5738,213.0692 236.5218,213.7952 230.6988,205.6102 C230.3068,205.0582 226.7048,210.1022 228.3548,212.3392 C214.3158,203.9722 243.5038,177.8982 226.4628,188.0572 C227.1218,183.6072 240.2378,136.8192 244.0178,138.2102 C247.7298,130.9922 262.4178,118.4962 260.7058,111.8812 C259.8368,108.5232 231.0808,146.6742 229.4748,149.6782 C232.4878,142.2082 245.5698,108.7582 251.0378,105.2492 C230.3348,118.5372 218.9758,167.5522 211.3148,190.3212 C211.6178,183.0482 215.3598,110.4882 222.4588,107.4582 C214.2038,110.9822 210.4228,165.6692 209.7408,173.3682 C209.5108,170.6292 205.1968,137.3422 205.4808,137.1322 C200.7798,140.6062 201.8598,154.4262 203.9058,168.2582 C202.0028,159.1582 199.4498,150.2272 195.8728,141.8532 C196.5988,143.5512 201.8148,181.8722 201.9408,189.0292 C202.3338,211.3012 192.1648,214.6622 183.1618,235.8122 C183.7398,216.1372 187.2778,177.3442 162.3278,195.2552 C180.9258,181.9042 180.2838,215.5722 176.8668,243.0152 C173.8908,220.8402 170.4038,206.0842 141.7828,226.3122 C165.4018,209.6202 170.0178,223.9612 169.7238,243.0152 Z" id="Fill-3" fill="#201C2D" mask="url(#mask-2)"></path>
            </g>
            <path d="M294.5413,186.3179 C293.1793,184.3049 287.7833,198.0719 282.5373,213.5779 C287.6123,203.6719 295.5283,187.7759 294.5413,186.3179" id="Fill-6" fill="#201C2D"></path>
            <path d="M1949.2688,139.5308 C1949.3078,139.7168 1949.3248,139.9198 1949.3458,140.1178 C1949.4008,140.2258 1949.3808,140.0698 1949.2688,139.5308" id="Fill-8" fill="#201C2D"></path>
            <path d="M1836.0266,207.0464 C1835.3746,206.4834 1834.5576,206.0244 1833.5276,205.7054 C1834.4106,206.2514 1835.2426,206.6944 1836.0266,207.0464" id="Fill-10" fill="#201C2D"></path>
            <path d="M5128.6709,231.7359 C5128.7939,231.6519 5128.9129,231.5579 5129.0419,231.4939 C5128.9209,231.5539 5128.7959,231.6369 5128.6709,231.7359" id="Fill-12" fill="#201C2D"></path>
            <path d="M5184.584,201.7046 C5183.767,204.0076 5183.075,207.7896 5182.576,212.2096 C5184.294,206.5856 5186.333,200.3016 5188.392,194.3126 C5186.247,198.4996 5184.634,201.5616 5184.584,201.7046" id="Fill-14" fill="#201C2D"></path>
            <path d="M5199.3477,169.4068 C5198.2067,167.7218 5193.2437,180.1968 5188.3917,194.3128 C5193.0597,185.1968 5200.2497,170.7398 5199.3477,169.4068" id="Fill-16" fill="#201C2D"></path>
            <path d="M3822.6428,144.0523 C3826.9198,155.6613 3831.2098,168.2193 3834.3438,178.4453 C3833.3308,170.5863 3831.4038,162.7243 3829.1418,156.5863 C3828.4818,154.7953 3825.8698,149.9723 3822.6428,144.0523" id="Fill-18" fill="#201C2D"></path>
            <path d="M3806.6897,109.273 C3804.9517,111.746 3815.3657,130.7 3822.6427,144.052 C3815.3557,124.273 3808.1067,107.257 3806.6897,109.273" id="Fill-20" fill="#201C2D"></path>
            <path d="M3946.4871,192.2164 C3944.9401,188.4964 3943.2491,184.9074 3941.3351,181.5364 C3942.9391,185.0294 3944.6791,188.6344 3946.4871,192.2164" id="Fill-22" fill="#201C2D"></path>
            <path d="M4026.7537,203.7222 C4026.7717,204.0392 4026.7647,204.3682 4026.7417,204.7052 C4026.7867,204.6962 4026.7937,204.4062 4026.7537,203.7222" id="Fill-24" fill="#201C2D"></path>
            <path d="M3949.803,60.4664 C3949.887,61.0244 3949.932,61.6124 3949.959,62.2134 C3950.179,63.1114 3950.165,62.8634 3949.803,60.4664" id="Fill-26" fill="#201C2D"></path>
            <path d="M3866.2844,58.8687 C3864.6304,61.8187 3866.0444,59.5367 3866.2844,58.8687" id="Fill-28" fill="#201C2D"></path>
            <path d="M3801.9592,197.4039 C3801.7462,197.7989 3801.5232,198.1899 3801.2862,198.5769 C3801.6522,198.3989 3801.8642,197.9909 3801.9592,197.4039" id="Fill-30" fill="#201C2D"></path>
            <path d="M2720.6575,146.2925 C2718.6525,148.1585 2720.3275,146.7715 2720.6575,146.2925" id="Fill-32" fill="#201C2D"></path>
            <path d="M2638.9504,237.9097 C2640.3624,237.5527 2641.0274,236.7877 2641.1144,235.7207 C2640.5094,236.5227 2639.7884,237.2527 2638.9504,237.9097" id="Fill-34" fill="#201C2D"></path>
            <path d="M2596.5823,157.5328 C2595.9073,161.8958 2595.9143,162.5718 2596.3763,161.1728 C2596.3463,159.8818 2596.4073,158.6598 2596.5823,157.5328" id="Fill-36" fill="#201C2D"></path>
            <path d="M2717.8079,188.2974 C2717.9729,188.5994 2718.8579,189.5304 2717.8079,188.2974" id="Fill-38" fill="#201C2D"></path>
            <path d="M5157.0625,117.5875 C5157.2455,118.1355 5158.3385,120.0385 5157.0625,117.5875" id="Fill-40" fill="#201C2D"></path>
            <path d="M5207.0615,233.2457 C5206.6635,232.5427 5206.3115,231.8247 5206.0025,231.0947 C5206.0925,232.1777 5206.4275,232.9157 5207.0615,233.2457" id="Fill-42" fill="#201C2D"></path>
        </g>
    </g>
</svg>