<svg class="midgroundTrees" width="2730" height="521" xmlns="http://www.w3.org/2000/svg">
 <!-- Generator: Sketch 49.1 (51147) - http://www.bohemiancoding.com/sketch -->
 <title>Page 1</title>
 <desc>Created with Sketch.</desc>

 <g>
  <title>background</title>
  <rect fill="none" id="canvas_background" height="523" width="2732" y="-1" x="-1"/>
 </g>
 <g>
  <title>Layer 1</title>
  <g fill-rule="evenodd" fill="none" id="Page-1">
   <g id="svg_1">
    <path fill="#000000" id="Fill-1" d="m479,192c0.207,0.2268 0.404,0.46046 0.608,0.68898c0.806,0.87969 -0.3,-0.35137 -0.608,-0.68898"/>
    <path fill="#000000" id="Fill-3" d="m456,189c0.139,0.189 0.111,0.151 0,0"/>
    <path fill="#000000" id="Fill-5" d="m117,474.35418c-1.09621,-0.409 -1.12703,-0.398 -0.86093,-0.291c0.28568,0.091 0.57135,0.185 0.85506,0.29c0.00196,0 0.00391,0.001 0.00587,0.001"/>
    <path fill="#000000" id="Fill-7" d="m490,502.483c0.28524,-0.013 0.67221,-0.143 1,-0.483c-0.00731,0.001 -0.01396,0.001 -0.02128,0.002c-0.23404,0.213 -0.58178,0.366 -0.97872,0.481"/>
    <path fill="#000000" id="Fill-9" d="m1027,365c0.54542,1.31015 1.94761,3.75567 0,0"/>
    <path fill="#000000" id="Fill-11" d="m1079,416c0.148,0.055 0.179,0.065 0,0"/>
    <path fill="#000000" id="Fill-13" d="m1998,519.4c-0.25682,-0.054 -0.51364,-0.108 -0.77047,-0.162c-0.40898,-0.079 -0.81605,-0.159 -1.22953,-0.238c0.66645,0.132 1.33291,0.266 2,0.4"/>
    <path fill="#222C40" id="Fill-17" d="m2472.52731,348.40123c2.76374,-6.39677 7.94574,-11.52691 14.02317,-14.83896c1.5112,9.28448 1.31429,18.51825 -1.39527,27.47164c-2.80277,3.73583 -5.79721,7.37489 -8.40539,11.2477c-2.98862,4.43822 -5.28454,9.26641 -7.31598,14.22925c0.46373,-2.78162 0.67345,-5.61452 0.74511,-8.40313c0.24992,-9.75256 -1.6417,-20.47156 2.34836,-29.7065m23.47895,-18.4448c-0.40431,4.31815 -0.6822,8.65261 -1.56538,12.89848c-0.63851,3.07248 -1.71918,5.89723 -3.07717,8.56868c0.23187,-2.26167 0.3379,-4.5379 0.30586,-6.81356c-0.06001,-4.30882 -0.74512,-8.53836 -1.54674,-12.75159c1.90152,-0.78575 3.87238,-1.4252 5.88343,-1.90201m299.99374,155.60186c-43.43329,-1.73071 -68.72889,-3.69309 -75.8868,-5.88714c-29.43228,-9.02217 -51.77111,-43.69455 -77.01137,-59.59615c-2.69091,-1.92882 -5.7238,-3.53414 -8.56036,-5.08932c-2.59245,-1.42054 -3.91141,-1.84897 -6.11762,-2.74373c-2.2534,-0.91282 -4.53651,-1.75862 -6.82137,-2.5875c-7.48842,-2.71633 -15.0986,-5.12839 -22.8521,-6.96162c-16.15306,-3.81976 -32.8217,-6.33557 -49.42801,-6.66841c-26.66912,-0.5351 -54.23425,2.73906 -79.93689,10.81052c2.36234,-6.02663 3.98365,-12.35696 6.26735,-18.47278c3.14532,-5.52009 6.94255,-10.68753 9.78901,-16.4367c0.3274,-0.66102 0.63792,-1.33077 0.94086,-2.00344c3.76868,-4.95118 7.66669,-9.81492 10.50499,-15.39389c4.07395,-8.00909 4.40835,-16.80568 5.44766,-25.49968c4.01569,-0.23141 8.05294,0.22325 11.8758,1.51088c-3.5706,-2.39573 -7.57872,-3.40007 -11.60257,-3.64722c0.44567,-3.26601 1.04281,-6.50695 2.02969,-9.67561c4.28484,-13.7536 13.03221,-25.53349 20.63132,-37.56519c1.0865,-1.72073 -1.47741,-3.76731 -2.85229,-2.20221c-7.84379,8.92833 -15.50582,18.69487 -20.40644,29.58408c-2.41303,5.36154 -4.31222,10.93701 -5.25891,16.75264c-0.1806,1.10518 -0.321,2.21561 -0.44916,3.32779c-2.30584,0.30544 -4.58021,0.85337 -6.78642,1.61931c-1.00786,-5.1144 -2.00639,-10.22704 -2.09086,-15.45102c-0.14332,-8.86829 3.96092,-19.00264 12.49507,-22.82998c-8.00924,0.24832 -12.551,6.24872 -14.74381,13.42251c-2.64082,8.64037 -0.81561,17.63107 0.78298,26.31866c-5.00316,2.36775 -9.5053,5.90422 -12.98502,10.38733c-5.91431,7.61913 -7.38997,17.18923 -8.02672,26.56756c-0.38042,5.59646 -0.50684,11.25586 -1.75297,16.74739c-0.18876,0.83239 -0.41887,1.64787 -0.66647,2.45519c-0.956,-1.48582 -1.8689,-2.9967 -2.72995,-4.5344c0.53539,-4.51692 1.27992,-9.00935 2.31399,-13.44c1.22108,-5.23447 3.05211,-10.25968 4.55632,-15.41138c1.37546,-4.70927 2.40021,-9.62839 1.77395,-14.55217c-0.59365,-4.66556 -2.73869,-8.86654 -4.98685,-12.92588c-2.73402,-4.93369 -6.0145,-10.10754 -6.41415,-15.88353c-0.36877,-5.32657 2.3571,-10.99822 7.7966,-12.44148c-5.82866,0.68724 -9.06312,6.38162 -9.09866,11.92445c-0.05825,9.06297 6.4427,16.03158 9.56822,24.06748c3.61896,9.30372 -0.07108,18.46346 -2.85637,27.43084c-1.89278,6.09367 -3.17678,12.34065 -4.03899,18.65174c-1.49139,-2.91102 -2.80161,-5.91297 -3.88287,-9.01693c-3.87412,-11.12296 -4.31571,-23.825 -12.36923,-33.08675c-6.00519,-6.90682 -20.2911,-11.41907 -24.93073,-0.47157c-1.37837,3.2526 -1.50304,7.04439 -1.9924,10.51266c-0.54005,3.82384 -1.0801,7.64827 -1.62014,11.47212c-1.1203,7.93156 -2.24234,15.81824 -1.99882,23.84074c7.66786,-11.18358 8.65241,-23.70318 10.32906,-35.84622c0.33498,-2.42487 0.31284,-5.62851 1.53217,-7.80565c1.10573,-1.97546 3.49837,-2.42546 5.61078,-2.20104c4.41301,0.46807 8.03663,4.06108 10.29236,7.62845c5.7273,9.05656 5.75992,20.79274 9.45694,30.70967c1.89803,5.09166 4.24581,10.02593 7.09577,14.65418c0.40547,0.65927 0.86221,1.32086 1.29914,1.99878c-0.1235,2.25234 -0.19924,4.50584 -0.24468,6.75934c-2.4742,4.36828 -4.36174,8.28422 -5.9714,12.2911c-1.77452,-0.93439 -3.68245,-1.64321 -5.62476,-2.28848c-0.39673,-6.02722 -0.98513,-12.2089 -4.68099,-16.89545c2.31865,4.3572 2.32331,9.07464 2.05649,13.83638c-0.04078,0.73212 -0.07457,1.45434 -0.10428,2.17364c-2.22719,-0.72047 -4.42874,-1.4695 -6.44445,-2.51056c-6.04888,-3.12262 -11.19593,-7.67509 -17.17665,-10.86707c-5.79953,-3.09463 -12.45487,-4.70402 -18.98379,-3.64955c-2.07805,0.33575 -1.49256,3.52306 0.48295,3.56911c11.62063,0.26989 20.25731,10.66072 29.70376,16.16099c3.93705,2.29256 8.22422,3.45487 12.48867,4.83285c0.04311,0.56833 0.09263,1.13783 0.15729,1.71082c-2.65129,0.13291 -5.31599,0.56367 -7.93816,1.13258c-8.42754,-2.84165 -16.65059,-2.1614 -25.21095,-2.89353c-7.67892,-0.65693 -14.10822,-5.19541 -20.22584,-9.48849c-3.58867,-2.51873 -7.23267,-4.96284 -10.85105,-7.43901c-3.68712,-2.52397 -7.27112,-5.33415 -11.33516,-7.21168c-1.6685,-0.7706 -3.21524,1.11334 -1.96853,2.5537c5.02879,5.80979 11.91192,10.40423 17.83554,15.28547c5.23444,4.3129 10.72347,8.53894 17.00537,11.20514c6.51086,2.76355 12.83647,2.46976 19.65143,2.4925c-5.89566,2.13575 -11.715,4.51108 -17.66659,6.46556c-10.32207,3.39016 -21.11194,4.61892 -31.80744,6.23706c-2.72937,0.4127 -5.40863,0.89651 -8.0576,1.44444c-7.53619,-5.30792 -10.29935,-11.62251 -7.96672,-19.11107c2.48818,-7.98635 8.04362,-15.92316 5.33464,-24.66612c-1.79607,-5.79698 -7.65911,-11.01571 -13.94452,-8.67244c3.79956,1.5785 6.83128,4.4015 7.85021,7.77476c1.07834,3.56854 -0.13283,7.6372 -1.49955,10.96033c-2.82316,6.86602 -7.02236,13.81656 -6.54698,21.51146c0.06291,1.01425 0.20506,2.02967 0.4212,3.03518c-2.96473,-2.60442 -6.085,-4.99607 -8.46948,-8.20495c-1.48557,-1.99877 -2.67577,-4.15202 -3.27349,-6.58447c-0.58374,-2.373 -0.57908,-4.86608 -1.39061,-7.1872c-1.10048,-3.15001 -3.85024,-6.16653 -7.47036,-5.75034c-3.42671,0.39463 -5.48203,3.62508 -6.95536,6.40669c2.90297,-0.2932 4.032,-2.17773 5.64107,-2.9798c2.61402,-1.30221 4.64196,0.87144 5.31484,3.27999c0.99096,3.54581 0.4346,7.24025 1.74714,10.76215c2.52837,6.78557 8.17702,10.71551 12.98735,15.73663c1.09466,1.14249 2.66877,2.69768 3.06551,4.28376c0.41013,1.63796 -0.51092,2.84457 -1.49547,4.00454c-8.97807,2.605 -17.60892,6.37638 -25.93159,10.53656c-6.6332,-0.15855 -12.16941,0.68491 -17.65902,1.43511c-9.8962,1.35175 -19.38927,2.98096 -29.43461,3.27416c-4.37514,0.12824 -8.74853,-0.01107 -12.97453,-0.87552c-2.4276,-0.49605 -4.85111,-1.1524 -7.15927,-2.05998c-1.1168,-0.4395 -2.77597,-1.00609 -3.74479,-1.76095c0.82784,-1.21768 1.65451,-2.43478 2.48468,-3.6513c5.39872,-7.90767 11.24603,-15.09428 17.97652,-21.89909c6.5499,-6.62353 13.34447,-13.03313 19.15041,-20.33866c5.52223,-6.94879 10.17293,-14.67167 16.19035,-21.20135c3.32476,-3.60817 6.82254,-7.2892 10.76774,-10.22878c4.02792,-3.00079 8.65182,-5.1383 13.21572,-7.17379c9.34916,-4.17067 19.24886,-7.09393 29.51442,-7.50546c3.07076,-0.123 3.08066,-4.67081 0,-4.78214c-8.73338,-0.31535 -18.31907,0.62545 -26.46348,3.98939c-8.24693,3.40707 -14.91742,8.77444 -21.51392,14.66584c-6.66349,5.95202 -12.48983,12.88508 -18.73212,19.27486c-6.42173,6.5734 -13.09804,12.75683 -20.1437,18.65815c-1.24555,1.04281 -2.47478,2.08912 -3.69644,3.14009c1.57645,-7.63952 2.15727,-14.54401 2.10776,-21.45724c-0.04545,-6.33499 0.30468,-13.87077 -2.48644,-19.75109c-0.16894,-1.04748 -0.35478,-2.09204 -0.55752,-3.13835c0.0367,0.18886 -0.19225,-1.1151 -0.31051,-1.71257c-0.04544,-0.62721 -0.18817,-2.09437 -0.1707,-1.87404c-0.29187,-3.68511 -0.77832,-7.47107 -0.69617,-11.16551c0.14855,-6.63343 1.1867,-13.61195 2.942,-20.0029c3.8048,-13.85444 9.11439,-27.3061 10.27138,-41.75568c1.05505,-13.18644 -5.09578,-27.35856 1.14418,-39.75924c3.10921,-6.17878 6.03548,-12.23106 7.50357,-19.04636c1.4343,-6.65617 1.90211,-13.52394 1.55082,-20.31709c-0.79405,-15.356 -4.22542,-31.7624 -11.37187,-45.40583c-3.83276,14.71889 0.07107,27.78875 0.3041,41.38671c0.11069,6.44399 -0.3845,12.86059 -2.02561,19.10815c-1.65976,6.3175 -4.77013,11.63941 -7.68009,17.42064c-3.31485,6.58448 -4.97345,13.29252 -4.6641,20.69598c0.29071,6.94704 1.84443,13.78274 1.87182,20.74902c0.05301,13.71979 -5.1756,26.7978 -8.98506,39.77556c-2.18175,7.43201 -4.22076,14.84421 -5.44824,22.50356c-0.61171,3.81801 -1.58985,7.53052 -2.44507,11.30365c-0.81561,3.59827 -2.02037,7.02341 -3.00784,10.54647c-3.23504,5.57314 -4.18347,12.24155 -6.2755,18.38826c-0.50043,1.47067 -1.03057,2.93026 -1.59218,4.37819c-0.2773,0.59864 -0.49519,1.241 -0.75035,1.83673c-1.25312,2.92734 -2.65655,5.7789 -4.25222,8.53603c-5.81177,10.03759 -12.18864,19.60653 -19.16905,28.85429c0.87735,-5.76491 1.72733,-11.53449 2.61285,-17.2959c1.7151,-11.15385 3.37136,-22.3421 4.55515,-33.56648c1.13194,-10.73066 -0.07865,-21.07137 -2.06057,-31.63998c-3.71275,-19.80122 -10.84522,-39.20548 -11.85657,-59.46137c-0.54121,-10.83733 0.70375,-21.3156 3.96035,-31.66505c1.57703,-5.01005 3.64051,-9.83765 6.18753,-14.43151c2.55867,-4.61368 5.9679,-8.65903 8.43918,-13.28029c0.53656,-1.00375 -0.63209,-2.48899 -1.69995,-1.70091c-6.90177,5.09166 -11.5146,14.10043 -14.86091,21.85363c-3.58808,8.31394 -5.56068,17.10704 -6.10772,26.14204c-0.61287,10.11453 0.60588,20.31126 1.92599,30.32786c1.30788,9.92043 3.63993,19.83561 4.26562,29.82249c0.6385,10.18507 0.59481,20.21334 -1.51761,30.23344c-2.23359,10.59893 -4.26037,21.22875 -6.61339,31.81019c-2.41303,10.85249 -4.46544,21.79533 -6.68331,32.68804c-0.15088,0.73971 -0.29653,1.48116 -0.44217,2.22261c-0.45674,-1.0364 -0.92396,-2.06872 -1.39469,-3.09871c-0.36935,1.49748 -0.78938,2.96989 -1.21816,4.39451c-1.36206,4.52158 -3.05619,9.55086 -6.3559,13.05936c-0.66763,1.78601 -0.65714,2.73207 -0.68103,3.65946c-3.96326,-0.99734 -7.88748,-1.78951 -11.38352,-2.59858c-10.75317,-2.48608 -21.8186,-3.95849 -32.82287,-4.7186c-5.85779,-0.40512 -11.72432,-0.55201 -17.59085,-0.50013c-3.14183,-3.01186 -6.24696,-6.05753 -9.26819,-9.17781c-3.66382,-3.78421 -7.00197,-7.80973 -9.37305,-12.54524c-2.44857,-4.88881 -3.20067,-10.42347 -3.05445,-15.83631c0.30644,-11.35204 3.77684,-22.51813 8.24694,-32.88448c4.50913,-10.45496 10.24575,-20.35498 14.90518,-30.7464c4.82373,-10.75806 8.0343,-21.55867 9.82572,-33.21207c0.89309,-5.80979 1.65917,-11.65223 3.01599,-17.37809c1.39876,-5.90189 3.69411,-11.34271 6.22948,-16.829c2.41768,-5.23097 4.7742,-10.52431 5.83157,-16.22394c1.11913,-6.03072 1.08592,-12.12438 1.22633,-18.23088c0.30526,-13.26513 3.09172,-26.6923 10.59646,-37.81409c1.64227,-2.43362 3.72498,-6.27437 6.70777,-7.23849c2.31224,-0.74728 4.83828,0.80207 6.40133,2.40855c2.16019,2.2197 2.65596,5.2199 2.4008,8.21894c-0.30353,3.55687 -1.00844,7.28337 -1.81007,10.75864c3.58517,-1.62163 5.47796,-4.19399 6.24987,-7.02223c0.83134,-3.04567 1.07543,-6.46731 0.36644,-9.55728c-1.00669,-4.38693 -4.50738,-8.61065 -8.96001,-9.73623c-5.08238,-1.28472 -9.01768,1.52779 -11.6416,5.6868c-3.28164,5.20066 -5.71855,11.03028 -8.13799,16.66695c-2.36817,5.51659 -4.16541,11.2681 -5.2892,17.16766c-1.24729,6.54892 -1.50071,13.20742 -2.10776,19.83212c-0.61753,6.73777 -2.29709,12.86059 -5.21463,18.96067c-2.79403,5.84419 -5.88925,11.5135 -7.88515,17.70393c-4.00288,12.41934 -4.78003,25.60519 -8.97632,37.98489c-2.30117,6.78965 -5.1989,13.30418 -8.3151,19.72253c3.21407,-11.2034 5.3795,-22.66328 8.06983,-34.02523c3.43895,-14.52361 8.71941,-28.68932 9.19479,-43.7667c0.44567,-14.12141 -3.22514,-27.93038 -8.89942,-40.75367c-5.75177,-12.99583 -13.89617,-24.82818 -23.00473,-35.68475c-8.45142,-10.07256 -18.81834,-18.78172 -24.82295,-30.6916c-5.62942,-11.16609 -6.23588,-27.70247 5.49893,-35.33151c5.87061,-3.81685 14.08667,-4.05234 18.92379,1.58434c5.52573,6.43991 0.89251,16.90594 -7.78146,16.64421c5.14589,1.49865 10.17118,-1.51846 12.45313,-6.19742c2.56508,-5.25721 0.7591,-11.33339 -3.1226,-15.41196c-10.17468,-10.69103 -26.64058,-3.35753 -32.87763,7.84529c-6.46368,11.6091 -5.04452,26.45098 0.09962,38.22038c6.08616,13.92497 16.73389,24.69119 25.78827,36.62147c8.93845,11.77872 16.60747,24.86432 20.79211,39.11921c1.97901,6.74244 3.14998,13.60554 3.18727,20.64118c0.04136,7.80041 -1.5916,14.96021 -4.12813,22.30887c-2.1899,6.34374 -4.60351,12.59654 -6.76428,18.94669c-0.29711,-1.1728 -0.6018,-2.34677 -0.91115,-3.52424c-1.57295,-5.98874 -2.71771,-12.17859 -3.4937,-18.31948c-1.49838,-11.8545 -2.03494,-24.15084 -8.60056,-34.55741c-5.51407,-8.73946 -15.28444,-15.11118 -25.89838,-13.77866c-9.75056,1.22468 -17.93982,8.92424 -22.5241,17.27608c-4.89597,8.92133 -7.26996,22.50181 -0.34431,31.06116c5.34105,6.6008 17.98352,6.67716 20.79037,-2.41497c-4.87383,2.75014 -9.28392,3.84775 -12.79685,3.06083c-4.62623,-1.03582 -7.01945,-5.50844 -7.80476,-9.86156c-1.6283,-9.02217 2.78296,-18.88664 9.09691,-25.16801c6.05237,-6.02139 15.60428,-8.43111 23.11425,-3.71775c7.51406,4.71452 10.97456,14.13656 12.41235,22.44701c0.92338,5.3394 1.15467,10.78663 1.43838,16.18897c0.31517,6.00974 1.1902,11.90055 1.8922,17.8689c1.31138,11.1521 -0.93852,21.64727 -3.74887,32.37327c-1.61897,6.17994 -3.33233,12.36746 -5.20065,18.5031c-3.43836,6.7028 -6.00227,13.78099 -7.44181,21.23341c-3.4203,8.08428 -7.52979,16.02109 -11.01766,24.32921c-0.50102,1.19379 -0.98456,2.39224 -1.45353,3.59418c-0.40605,-8.13558 -2.64955,-16.14933 -5.13831,-23.85006c-1.82463,-5.64425 -3.65333,-11.28792 -5.47971,-16.93159c-1.88171,-5.81446 -2.8785,-11.91979 -4.14735,-17.89513c-1.08534,5.13946 -0.62161,10.15184 -0.62394,15.1176c-0.00291,4.77222 -0.53364,9.60041 -0.80686,14.36506c-0.2476,4.31582 -0.44975,8.63688 -0.79405,12.94628c-0.16079,2.01102 -0.36353,4.0197 -0.55986,6.0278c-0.14273,1.37682 -0.2004,1.83673 -0.23419,2.11536c-0.1975,1.23284 -0.29304,1.82274 -0.40431,2.40972c-0.33382,1.75629 -0.74453,3.49975 -1.25778,5.21232c-0.25633,0.85628 -0.55345,1.69566 -0.84415,2.53971c-1.15292,2.60091 -1.84618,4.16426 -2.33088,5.76666c-0.7492,1.38731 -1.22458,2.13343 -1.68306,2.89645c-4.00696,4.79729 -7.13888,8.08836 -9.03516,12.59595c0.02155,0.50479 -3.24087,3.91478 -3.55022,4.25403c-2.24874,2.47209 -4.6437,4.78505 -7.21694,6.91614c-3.32126,2.36775 -4.65361,3.23511 -6.00984,4.06167c-2.4643,1.50214 -5.01772,2.84165 -7.62067,4.08265c-37.21024,-3.41348 -74.60633,-3.31263 -111.82997,0.8592c2.70198,-6.02955 4.17939,-12.63209 5.32881,-19.11747c0.29537,-1.66477 0.89659,-7.34808 0.39499,-2.47734c0.14739,-1.43219 0.40664,-2.83116 0.54238,-4.25811c0.14972,-1.575 0.25225,-3.15583 0.31808,-4.73667c0.12409,-2.97397 -0.27497,-5.92229 0.02971,-8.88169c0.7859,-7.6407 0.44101,-15.30121 1.2939,-22.9419c0.86513,-7.75611 2.80918,-15.15199 5.4465,-22.48433c2.6111,-7.26006 5.7873,-14.32309 7.65038,-21.83497c4.07802,-16.43786 1.66441,-33.22256 -0.50626,-49.73562c-1.06553,-8.10819 -2.00289,-16.22453 -2.04833,-24.41257c-0.02098,-3.81743 -0.23129,-7.61272 0.04544,-11.4284c0.29245,-4.03311 0.95658,-8.01317 1.27525,-12.04744c0.30586,-3.87572 -4.73109,-4.29133 -6.59009,-1.78602c-4.72293,6.36764 -6.17937,14.62504 -6.9944,22.38115c-0.78938,7.50896 0.30877,15.40555 1.18671,22.86205c1.76637,15.00159 4.90412,30.74406 2.26622,45.82901c-2.85986,16.35393 -12.13621,30.65837 -15.0753,47.03212c-0.69967,3.89904 -1.03407,7.87735 -1.8421,11.75016c-0.84299,4.03952 -1.97202,8.07846 -3.2333,12.00664c-0.25633,0.79741 -0.5447,1.5855 -0.79929,2.38291c-1.35216,1.88511 -2.08038,3.24619 -2.8919,4.46737c-0.83192,1.25324 -1.64694,2.51464 -2.51381,3.74457c-0.1707,0.24307 -1.51295,1.77144 -1.45353,2.01276c-1.2572,1.82041 -1.57354,2.27507 -1.89337,2.72799c-0.4311,0.60972 -0.87736,1.20777 -1.31429,1.81283c1.02242,-6.73894 0.70375,-13.56416 0.1404,-20.38821c-0.38042,-4.60551 -0.77948,-9.20287 -1.40109,-13.78332c-0.57326,-4.22955 -0.06292,-7.73163 1.29157,-11.77173c2.44099,-7.28163 6.39318,-13.95937 8.74387,-21.27888c2.35943,-7.34924 3.43428,-17.12045 -2.52313,-23.14242c-4.3868,-4.43415 -13.18601,-4.13337 -15.18483,2.5572c12.84462,1.87345 12.9157,6.28252 12.7182,9.49782c-0.43169,7.02631 -3.77217,13.3479 -6.86798,19.52084c-1.54266,3.07715 -3.05094,6.1677 -4.34368,9.36026c-1.48323,3.66588 -2.22835,7.45242 -3.34107,11.22438c-2.37457,8.05223 -1.50013,16.0211 -1.4308,24.27209c0.05418,6.51044 -0.73638,12.59187 -3.07716,18.68263c-0.47072,1.22409 -1.94114,4.21497 -3.09872,6.22191c-1.27875,2.21736 -3.33466,5.34056 -4.31222,6.42767c-3.12086,3.47002 -6.36697,6.82929 -9.64628,10.15942c1.57179,-2.33628 3.05677,-4.74308 4.43281,-7.23266c4.81673,-8.71499 7.87525,-17.92894 9.13886,-27.79924c0.58374,-4.55772 0.7422,-9.14691 0.32566,-13.7262c-0.51616,-5.67923 -2.00115,-10.77613 -3.97841,-16.09629c-3.06376,-8.24691 -5.96207,-16.6174 -9.30489,-24.74948c-2.54585,-6.1951 -8.06983,-10.80411 -15.02403,-8.16473c-4.27028,1.62047 -8.02206,5.35339 -10.77415,8.89627c-2.37982,3.06432 -4.53593,7.58182 -2.561,11.41383c2.16136,4.19224 10.85221,5.196 11.20176,-0.7024c-11.44294,-3.79004 -6.34891,-9.19705 -3.73372,-11.74317c2.59828,-2.5298 5.84788,-5.44431 9.68822,-5.46938c3.48264,-0.02273 5.85546,2.4138 7.33287,5.33065c3.15174,6.22308 1.57063,13.46098 2.08504,20.1702c0.62977,8.22476 1.79492,16.54454 1.38653,24.80777c-0.69326,14.02057 -7.07305,27.40053 -15.3462,38.91637c-3.85431,5.3662 -8.48171,10.3681 -13.53555,15.00917c-3.2764,1.65486 -3.87704,1.9399 -4.48117,2.21853c-2.87967,1.20661 -3.65682,1.49748 -4.43747,1.7796c-4.33611,1.39547 -5.44475,1.67585 -6.56504,1.92591c-7.72437,1.32553 -8.68387,1.42054 -9.64453,1.50623c-4.30931,0.38355 -8.63668,0.54443 -12.96172,0.58115c-6.98391,-0.74029 -13.10328,-0.94547 -19.25702,-0.72397c-7.78379,-3.72475 -15.57166,-7.64535 -22.57071,-12.50268c-2.13106,-1.63446 -2.83889,-2.25992 -3.50769,-2.92735c-0.6286,-0.6272 -1.23215,-1.2818 -1.80074,-1.96554c-1.16282,-1.82566 -1.94871,-3.33829 -1.87997,-3.09405c-0.32391,-0.80266 -0.57617,-1.64845 -0.81036,-2.47618c-0.26857,-0.95246 -0.46839,-1.91717 -0.67579,-2.88362c-0.16487,-1.00259 -0.26973,-1.78485 -0.2808,-1.89676c-0.90416,-9.29906 -0.61986,-18.80504 -0.71132,-28.14024c-0.19458,-19.82162 -0.35246,-39.64499 -0.4917,-59.46778c-0.0769,-10.96499 -0.00815,-21.92648 0.17594,-32.88972c0.0903,-5.38311 0.25808,-10.76273 0.20215,-16.14642c-0.01281,-1.23109 -0.0099,-2.46335 -0.00641,-3.69619c1.51994,-10.051 2.74918,-20.21158 2.70548,-30.3949c-0.01689,-3.94684 0.01865,-7.89484 0.12468,-11.84109c0.7754,-5.312 1.94638,-10.45029 3.838,-15.75821c2.61052,-7.32243 5.71273,-14.49913 7.7133,-22.02441c3.67838,-13.84045 3.69877,-29.33169 11.36779,-41.80581c3.46282,-5.63376 8.34189,-10.12911 14.90984,-11.6843c6.68214,-1.582 14.96112,0.47507 19.59492,5.65999c4.76954,5.33706 6.90119,13.78333 4.01103,20.52752c-1.15758,2.70117 -3.44768,5.51485 -6.58718,5.70137c-2.6711,0.15856 -6.15782,-1.8 -6.48581,-4.68071c-5.5665,5.79464 -0.46606,10.50508 5.77274,10.93235c7.06664,0.48381 12.39021,-5.42916 14.48224,-11.63183c4.98568,-14.78301 -5.45174,-30.81634 -19.59492,-35.35716c-14.9716,-4.8072 -29.34781,5.56381 -37.3821,17.42589c0.20681,-9.52114 -2.04892,-18.64823 -4.26387,-27.89832c-1.09874,-4.59153 -2.23942,-9.28274 -2.51439,-14.00892c-0.25576,-4.39917 0.43634,-8.50805 1.56945,-12.74867c4.36466,-16.33586 15.09394,-33.89698 9.56705,-51.2879c-3.05094,-9.60158 -11.66898,-16.21345 -21.94153,-13.19285c-10.55335,3.10338 -14.59991,12.75567 -17.86117,22.30946c-0.87386,2.55952 2.82432,3.85998 4.19221,1.76852c3.88286,-5.93453 9.19945,-14.27588 17.01178,-15.16364c7.03168,-0.79858 9.80532,6.81064 10.09195,12.52601c0.83308,16.59467 -9.55482,31.24885 -12.10358,47.29384c-1.48266,9.33345 -0.87387,17.95167 0.90415,27.20293c1.77162,9.21686 3.00551,18.01287 1.98018,27.42035c-0.99504,9.12651 -3.65217,18.10846 -6.14908,26.91205c-1.77453,6.25513 -3.36438,12.57439 -4.55283,18.96709c-5.04219,18.54506 -7.27811,37.39964 -8.29587,56.62146c-0.10952,0.73212 -0.21614,1.46483 -0.32508,2.19579c-0.48179,1.84373 -0.98746,3.68045 -1.49256,5.51718c-0.13748,-10.93002 -2.17358,-20.42667 -4.11414,-30.02301c-1.87764,-9.28564 -3.28339,-18.63658 -3.59274,-28.11458c-0.32217,-9.87963 0.2039,-19.76566 0.61461,-29.63422c0.82202,-19.72952 1.65277,-39.45962 2.47245,-59.18914c0.40198,-9.67212 -0.15205,-19.1303 -6.33783,-27.04088c-2.67227,-3.41756 -5.94402,-6.21433 -9.46452,-8.72665c-1.83511,-1.30919 -3.74188,-2.5158 -5.67428,-3.67462c-2.06407,-1.23808 -3.82286,-1.60181 -6.18695,-1.84605c-1.9225,-0.19877 -3.47448,2.4651 -2.31108,4.02903c1.07078,1.43977 1.95571,2.7309 3.47681,3.73407c1.50421,0.99094 3.09814,1.85014 4.60584,2.84049c3.18611,2.09379 6.2289,4.44056 8.73863,7.33234c5.62418,6.47897 5.6335,14.71481 5.21172,22.83873c-0.99329,19.13846 -2.1666,38.26875 -3.25427,57.40197c-0.54004,9.49782 -1.20884,19.00555 -1.22166,28.5232c-0.01223,9.4576 0.96766,18.76948 2.49051,28.09476c1.47741,9.04957 2.76723,18.08049 3.22805,27.24897c0.47655,9.47976 -0.44101,18.95835 -1.6481,28.35125c-1.1203,8.71906 -2.19223,17.42822 -3.17329,26.15836c-3.2263,-6.28778 -7.53153,-12.05444 -9.86067,-18.75316c-3.48962,-10.03526 -1.1535,-21.01074 -2.39963,-31.38409c-1.11097,-9.24951 -4.10715,-18.17842 -8.87961,-26.18692c-4.38446,-7.35799 -9.93873,-16.4606 -18.14255,-20.0064c-9.00137,-3.8903 -16.69603,4.41199 -21.45275,11.14627c-5.18201,7.33758 -7.85778,18.55206 -2.03843,26.32332c4.76837,6.36764 16.16413,8.36641 20.83055,0.85804c1.61898,-2.60558 -1.92191,-4.97275 -4.05355,-3.12961c-5.47097,4.73259 -13.19766,2.31646 -15.45048,-4.46271c-2.80102,-8.43169 2.85928,-15.84505 8.87612,-21.13898c2.91753,-2.5671 6.10771,-6.2359 10.39139,-5.00364c3.78907,1.08945 6.80972,4.54606 9.32412,7.40345c5.45232,6.19393 9.13943,13.33042 11.28273,21.28821c2.17359,8.06971 2.20213,16.05956 1.52984,24.33387c-0.74453,9.15741 -0.91406,18.19533 2.63441,26.83803c1.61023,3.92235 3.69644,7.62729 5.12316,11.62309c1.21351,3.39832 1.97493,6.85902 2.78996,10.36343c1.63994,7.05605 2.54002,13.65393 2.42234,20.91923c-0.12933,7.92865 -1.18029,15.53554 -3.75295,23.06839c-1.19894,3.51083 -2.70781,6.88817 -4.48816,10.13902c-8.70949,7.29212 -17.32928,14.74453 -25.44863,22.65744c-4.65186,4.53324 -9.39635,8.97963 -14.36339,13.16779c-1.20651,1.01775 -2.42584,2.02092 -3.65974,3.00545c-4.21435,3.14126 -6.78467,4.90221 -9.42839,6.54542c-2.61227,1.62396 -5.29678,3.13368 -8.05469,4.49709c-2.9554,1.40422 -3.15989,1.59191 -3.1663,1.6776c-6.48814,2.02034 -9.31246,2.75305 -12.17582,3.29282c-11.87579,0.66159 -15.73594,0.75719 -19.11196,0.05129c-4.3396,-0.93381 -6.05412,-1.40654 -7.70805,-2.09145c-0.95601,-1.92125 -1.60325,-3.47352 -3.02473,-4.81537c-2.66528,-2.51697 -5.31891,-4.85849 -8.42054,-6.83745c-1.47392,-1.63154 -1.70404,-2.53213 -1.89629,-3.42864c-0.88202,-4.11413 -0.82201,-9.3043 -0.88901,-14.00075c-0.14098,-9.85922 -0.16778,-19.95277 1.76055,-29.57883c1.95162,-9.74614 7.32588,-18.41624 9.40742,-28.13674c-6.37104,3.76497 -10.62501,8.03416 -14.5003,12.6082c0.67055,-1.85946 1.40401,-3.70144 2.25049,-5.52418c4.34019,-9.3486 11.35556,-17.15367 15.43999,-26.54482c1.31837,-3.03168 3.29446,-5.65941 5.08588,-8.41013c1.54208,-2.36717 2.97696,-4.77864 4.58604,-7.10326c3.43777,-4.96575 6.96002,-9.89827 10.86095,-14.51312c-8.32209,5.67573 -11.662,15.25924 -17.93516,22.85855c-1.8188,2.20337 -4.03026,3.9206 -6.5062,5.32773c-1.40634,0.79916 -2.62684,1.70733 -3.79781,2.71342c1.13835,-2.35318 2.14271,-4.77281 3.0358,-7.2723c3.78091,-10.58144 7.3655,-22.23776 16.84982,-29.24892c2.02678,-1.49748 0.22662,-4.855 -2.0262,-3.46769c-8.69377,5.35397 -12.08086,13.97219 -16.73214,22.54436c-2.30467,4.24645 -4.93325,8.52846 -7.88749,12.35289c-2.66469,3.44904 -5.99295,6.2732 -9.0101,9.3929c0.02213,-2.1037 0.04602,-4.20798 0.0967,-6.31109c0.24643,-10.14194 0.33149,-20.36431 1.21118,-30.47593c0.89891,-10.32729 3.60556,-20.40627 5.75526,-30.51556c-4.78586,6.41893 -7.29501,13.8183 -9.54899,21.26197c-2.32156,7.6646 -4.63147,15.34376 -6.49979,23.13426c-3.58692,14.9608 -1.31604,30.89562 -7.26355,45.29799c-2.7317,6.61478 -6.27434,12.40301 -10.74269,16.8867c-5.05559,5.07418 -10.16768,10.09997 -15.2926,15.10827c-1.09524,1.07021 -2.91404,3.46419 -4.37863,3.94159c-3.11328,2.27274 -4.37165,3.12086 -5.68535,3.89263c-3.25252,1.33601 -6.1619,2.71691 -6.78526,2.89411c-8.10944,1.38207 -9.87698,1.36808 -11.65616,1.38556c-3.8718,0.04022 -7.7232,0.31069 -11.61247,0.28155c-5.12725,-0.94897 -6.91051,-1.38731 -8.67571,-1.88803c-1.75297,-0.49721 -3.48905,-1.05564 -5.20298,-1.67235c-4.79343,-1.98128 -5.87644,-2.48316 -6.9443,-3.01477c-0.22021,-2.19405 -0.321,-3.09755 -0.3711,-4.00571c-0.24293,-4.42773 -0.02563,-8.86421 0.29304,-13.28262c0.63209,-8.77036 1.7285,-17.57919 0.87269,-26.37461c-0.46839,-4.80721 -1.41274,-9.52756 -2.22369,-14.2823c0.01632,0.09443 -0.31459,-2.05415 -0.35304,-2.18355c-0.11185,-0.93964 -0.19632,-1.88511 -0.24759,-2.82883c-0.05942,-1.10111 -0.08214,-2.20512 -0.04369,-3.30681c0.01107,-0.32293 0.25283,-2.32462 0.187,-2.13634c1.42615,-7.685 5.4564,-14.6163 7.09111,-22.2634c1.92774,-9.01693 1.16748,-18.29034 1.72966,-27.43084c0.36994,-6.02431 3.15057,-13.15205 6.24288,-18.70303c3.72266,-6.68124 8.69319,-12.51493 12.932,-18.5404c1.96561,-2.79386 3.85723,-5.63784 5.89275,-8.38798c2.33205,-3.15117 5.12725,-5.87566 7.79602,-8.74121c5.24027,-5.62677 10.04593,-11.64524 14.68381,-17.77622c4.46602,-5.90306 8.21198,-12.2328 10.93028,-19.12971c3.10978,-7.88901 3.23679,-16.80102 7.56474,-24.19398c3.90092,-6.66317 10.33546,-12.24213 18.30742,-12.75392c3.23213,-0.20752 7.12839,0.09268 9.8362,2.07746c0.93795,0.68666 1.56422,1.53479 2.20971,2.52456c0.86163,1.3226 1.99765,2.38232 2.79054,3.75506c1.57819,2.73265 1.60441,5.32657 -0.55578,7.80157c-1.50013,1.7184 -3.9621,2.87838 -6.26793,2.42372c-2.76548,-0.5456 -4.37222,-4.36536 -1.63237,-6.08959c-6.279,1.15531 -2.96415,8.33843 2.09319,8.95281c6.93789,0.84229 10.36226,-5.13305 12.46711,-10.65605c1.06611,-2.79852 1.67024,-6.62004 0.86046,-9.57127c-0.94435,-3.4438 -4.14444,-6.57165 -7.03984,-8.44219c-7.50124,-4.84509 -16.76418,-3.68861 -24.37378,0.23433c-7.50065,3.86639 -13.9451,10.04225 -17.6695,17.66079c-3.86947,7.91583 -4.20911,16.88613 -7.74418,24.92844c-3.29679,7.49963 -8.12284,14.81448 -13.81985,20.70705c-5.81992,6.02023 -11.82161,12.50561 -18.46297,17.61009c-3.56186,2.7379 -7.37191,5.42216 -10.53529,8.48474c-0.85172,0.82481 -1.68364,1.66827 -2.49808,2.52688c1.37022,-1.98886 2.74393,-3.97423 4.10424,-5.96834c4.39495,-6.4405 8.59124,-13.06228 11.76219,-20.20517c3.45642,-7.78584 5.9615,-15.79843 7.92244,-24.07857c1.82405,-7.70598 3.26068,-15.49764 5.0853,-23.20362c0.86571,-3.65481 1.81531,-7.29154 2.94084,-10.87523c1.22283,-3.89437 2.42119,-7.10092 3.85956,-10.08364c5.98655,-12.41583 15.82216,-20.94371 25.37174,-31.47036c10.22303,-11.26868 18.8999,-23.19255 20.25148,-38.81493c0.84123,-9.72108 -0.48179,-19.49345 -1.37022,-29.16381c-0.75677,-8.24051 -0.35304,-16.49033 3.1092,-23.62565c5.87236,-12.10165 19.79649,-22.82824 33.88724,-20.82771c3.16804,0.44942 6.20675,-0.9513 6.6798,-4.45222c0.44043,-3.25843 -2.02444,-5.93337 -5.25657,-6.06744c-22.74374,-0.94546 -46.66719,13.50296 -51.62723,36.76779c-1.48615,6.97268 -1.55839,14.27296 -0.80337,21.34299c0.72705,6.80015 2.09202,13.50121 2.32564,20.35382c0.37867,11.1282 -4.28543,20.69481 -11.39226,28.60131c-7.46629,8.3052 -16.51251,15.03598 -24.079,23.25666c-8.85631,9.62199 -14.90169,20.72979 -19.26168,33.01156c-4.22775,11.91104 -6.81264,24.33387 -11.03048,36.24608c-0.47364,1.33835 -0.96242,2.67028 -1.47567,3.99347c-0.22837,0.58815 -0.46489,1.17339 -0.70142,1.75862c-1.60091,3.50092 -3.0358,6.43117 -4.70138,9.26466c-1.50246,2.5572 -3.13251,5.0357 -4.84178,7.45825c-0.90358,1.28122 -1.83104,2.54495 -2.77364,3.79703c-0.61637,0.79624 -1.70462,2.19055 -1.93823,2.48375c-9.08235,11.41732 -18.99545,22.3147 -26.13432,35.12924c2.76548,-15.47142 5.39173,-32.02062 5.87002,-48.90674c0.45616,-16.11086 -1.26069,-31.98448 -5.59097,-47.53284c-2.33729,-8.3938 -4.97344,-16.80859 -6.97983,-25.28575c-2.14388,-9.05657 -2.02562,-17.63574 2.15669,-26.08084c3.79606,-7.66517 9.36839,-14.49505 11.77851,-22.80492c2.08794,-7.2006 2.04192,-15.66435 -3.19135,-21.54118c-7.4389,-8.353 -27.07518,-3.0276 -23.43584,9.79394c3.51526,-6.15838 9.3113,-8.72023 13.2699,-8.73248c6.10015,-0.01865 9.05963,5.92521 9.38296,11.3672c0.90299,15.18404 -12.73335,25.84126 -15.3561,40.13288c-2.95424,16.09862 6.03781,31.0734 7.99118,46.71036c1.88929,15.12983 1.62655,30.76854 0.32566,45.93976c-1.63995,19.12622 -4.9816,38.10088 -9.03458,56.91525c-0.60995,-1.94573 -1.09349,-3.15875 -1.25253,-4.08207c-0.74279,-6.44691 -0.82027,-11.24712 -0.51791,-16.08813c0.58374,-9.35851 2.33729,-18.83826 1.30555,-28.22708c0.0402,0.37131 -0.45324,-3.71543 -0.27323,-2.16083c0.17827,1.54353 -0.321,-2.49774 -0.27031,-2.13867c-0.14856,-1.05505 -0.31634,-2.10486 -0.5284,-3.14884c-0.42178,-2.0798 -0.98921,-4.1287 -1.73724,-6.11524c-1.72034,-4.56821 -3.93296,-8.56459 -7.05848,-12.3214c-5.24434,-6.30468 -13.29553,-10.28824 -21.27623,-11.71286c-8.45841,-1.5103 -17.158,-0.60156 -25.49349,1.20428c-9.415,2.04016 -18.61153,5.27294 -28.3015,5.77132c-18.79446,0.96646 -35.34076,-12.12438 -54.34495,-10.51499c-8.11818,0.68725 -15.47145,3.97832 -21.22146,9.77645c-5.32649,5.37087 -8.40948,12.41293 -10.90057,19.4544c-1.21292,3.42922 -2.0192,7.01349 -3.24727,10.42172c6.21374,-5.43499 9.88513,-12.07309 13.90141,-17.67829c3.89102,-5.4309 8.62793,-10.64264 15.09161,-12.89789c16.55678,-5.77599 33.52312,5.42916 49.5084,8.33493c17.36074,3.15525 34.50011,-2.56011 51.86784,-1.22585c6.31919,0.48498 12.11698,2.22261 17.23723,5.37962c1.6551,1.02008 3.91724,3.52948 5.18784,5.75267c0.36818,0.64469 0.7154,1.31211 1.02649,1.99061c0.86979,2.53213 1.10806,3.40299 1.31604,4.28026c0.06292,0.26755 0.515,2.73906 0.51616,2.50473c0.53189,4.22897 0.30061,8.53429 -0.14681,12.75801c-0.34721,3.27475 -1.59917,9.35734 -2.38739,13.85269c-1.82637,10.41415 -2.54236,20.51994 -1.21117,30.93642c-0.28022,3.98939 -0.10953,8.04406 0.44974,12.02995c-4.40252,17.26793 -9.72376,34.27646 -15.73943,51.05707c-3.53798,3.93984 -7.30375,7.66226 -11.40041,11.04602c-5.3294,3.7877 -11.07709,6.89749 -16.57485,10.44329c-6.94313,4.47844 -13.32524,9.76771 -18.82883,15.93016c-4.59885,5.14937 -8.72698,10.69336 -13.20057,15.94881c-4.64895,5.46064 -9.81057,10.27717 -15.40329,14.7323c-5.59098,4.22663 -11.28914,8.30928 -16.8673,12.5534c-11.89968,-0.57474 -19.68114,-0.8866 -27.42589,-1.47533c-3.57935,-1.64495 -6.99207,-4.20331 -9.42607,-7.40812c1.6417,-2.90169 2.93793,-5.99166 3.7611,-9.40339c1.3743,-5.69438 1.6184,-11.6942 3.24728,-17.31805c0.71482,-2.01335 0.96707,-2.58693 1.00552,-2.66504c0.62161,-1.25265 1.31721,-2.46626 2.05591,-3.65363c1.67024,-2.68194 3.50594,-4.96284 5.49485,-7.57191c3.59798,-4.72035 6.18462,-9.76246 8.65299,-15.13567c2.6012,-5.66232 5.05967,-11.42839 6.97576,-17.36643c0.9024,-2.7956 1.38827,-5.80805 2.20621,-8.65844c0.87095,-3.03751 1.73083,-6.09251 2.77189,-9.07755c2.43924,-6.99426 5.38766,-14.01125 8.56327,-20.70297c3.10746,-6.54776 7.46978,-12.70613 11.70976,-18.56489c-4.80041,4.32165 -8.54754,9.42555 -12.11989,14.68392c-3.75703,5.53058 -7.72203,10.75164 -10.96057,16.63197c-3.08299,5.5982 -5.93994,11.32581 -8.73513,17.07207c-1.30555,2.68485 -2.7649,5.19017 -3.98016,7.93331c-1.33409,3.0107 -2.72761,5.99691 -4.25396,8.91492c-2.8185,5.38952 -6.46367,9.9455 -10.73104,14.2549c-4.48874,4.5344 -9.3311,8.63629 -13.12367,13.81014c0.06933,-1.95156 0.50451,-4.21497 0.8593,-6.45624c1.26769,-8.02074 2.22719,-16.10852 2.00697,-24.24235c-0.21438,-7.93623 -2.26039,-16.15866 -0.87328,-24.06458c1.21817,-6.94296 5.51116,-12.73702 9.15401,-18.58936c5.82342,-9.35502 11.21748,-24.40091 -0.92164,-31.43422c3.2065,4.45804 3.91433,10.23986 3.32243,15.2196c-0.70026,5.89082 -3.81237,10.89155 -7.17034,15.63521c-3.49836,4.94186 -7.14994,9.85456 -9.02816,15.68826c-2.17651,6.75993 -1.51645,13.9308 -1.26244,20.90232c0.15321,4.20973 -0.06525,8.36641 -0.54879,12.50211c-0.29012,-17.83159 -4.87266,-35.7716 -12.53236,-51.58518c8.46482,19.7983 11.89852,40.41442 10.90989,61.424c-1.41857,6.81122 -2.84239,13.87018 -6.19627,20.0064c-1.44595,2.6458 -2.64839,5.32599 -3.86772,8.07904c-0.67812,1.53187 -1.3976,3.0445 -2.06756,4.57987c-0.45674,1.04631 -0.87677,2.09204 -1.30846,3.14534c-0.55927,1.30571 -0.85289,1.99004 -1.13719,2.67844c-2.82374,6.69406 -3.91374,11.03378 -7.73835,17.31514c-0.91231,1.49865 -1.90269,2.93667 -2.92103,4.36361c-0.75968,0.95014 -1.29157,1.58958 -1.84152,2.21329c-1.98367,2.24942 -4.15259,4.38984 -6.50795,6.2563c-2.10251,1.46891 -2.83015,1.93524 -3.57176,2.37824c-5.92013,0.03614 -11.23963,-0.2897 -16.5364,-0.60855c-9.03749,-0.54443 -18.07964,-1.04398 -27.1282,-1.35758c-5.32357,-2.40564 -10.79512,-4.54548 -16.3925,-6.17469c-6.35764,-1.85014 -12.83413,-2.90403 -19.38228,-3.74399c-5.77565,-0.68491 -9.46743,-0.9443 -13.16445,-1.05622c-4.12288,-0.80674 -6.76311,-1.39897 -9.32644,-2.24767c-2.49867,-1.04224 -3.13892,-1.38731 -3.75995,-1.76737c-1.98483,-1.56393 -2.48934,-2.17364 -2.80801,-2.53679c-0.87852,-1.39489 -1.11679,-1.89852 -1.38012,-2.39399c-0.2808,-1.00609 -0.41479,-1.70091 -0.62918,-2.36775c-0.16662,-1.22001 -0.19749,-1.82448 -0.19225,-2.43304c0.19342,-1.7318 0.33964,-2.51639 0.33615,-2.50123c0.42236,-1.33777 0.55461,-1.68051 0.62743,-1.80875c0.65948,-1.1594 1.30905,-2.28848 2.07805,-3.37559c1.01484,-1.2445 1.59858,-1.89677 2.16834,-2.56011c3.28048,-3.81977 7.8502,-9.1784 10.33955,-14.69091c2.5942,-5.74568 2.35185,-12.21299 4.73458,-17.98023c2.41886,-5.85468 8.67338,-9.8464 14.45253,-11.67147c3.04454,-0.96121 6.1753,-1.36808 9.24722,-2.16315c3.03405,-0.78518 6.00751,-2.00111 9.01535,-2.90403c1.50129,-0.45117 1.28516,-2.89528 -0.38101,-2.81775c-11.782,1.00784 -14.6873,2.19812 -17.3788,3.29457c-5.09112,2.07455 -10.40246,4.72384 -14.53874,8.39438c-2.24874,1.9947 -4.17416,4.33564 -5.96557,6.78966c0.18991,-0.92157 0.36352,-1.84955 0.49984,-2.79385c0.92979,-6.42826 0.90067,-12.80813 0.53772,-19.27894c-0.60238,-10.72018 -3.00492,-21.81982 0.59656,-32.27593c2.59945,-7.54802 11.70626,-14.11209 19.87863,-11.99498c5.87352,1.52254 10.04185,6.77275 13.32,11.51991c1.78792,2.58867 4.03025,5.28169 3.93937,8.64445c-0.08214,3.03868 -1.8957,6.33966 -4.30348,8.13966c-4.47126,3.34179 -10.30983,3.59418 -14.7578,0.17487c-4.39203,-3.37675 -5.91197,-8.20844 -6.30521,-13.53734c-5.67137,7.70482 2.44332,18.30316 10.88367,18.86217c4.60643,0.30485 8.85864,-1.79476 12.03892,-5.00773c3.59332,-3.63032 5.07598,-8.28247 5.05792,-13.37996c-0.02272,-6.25629 -3.27932,-11.26401 -7.32472,-15.79434c-3.98015,-4.45746 -9.01535,-7.70539 -15.03918,-8.32677c-11.57227,-1.19437 -21.44284,7.22742 -26.79846,16.73107c-6.6565,11.81311 -6.8237,25.84767 -7.01071,39.01546c-0.09612,6.73078 -0.61869,13.04886 -2.96764,19.41009c-0.70258,1.74404 -0.90998,2.18822 -1.12029,2.62831c-0.60063,1.26082 -1.24438,2.50065 -1.91376,3.72591c-1.50071,2.74606 -3.14532,5.41459 -4.76313,8.09245c-2.19456,3.63149 -4.43806,7.24607 -6.44445,10.98714c0.36353,-2.50182 0.85464,-4.98499 1.34109,-7.48448c0.90415,-4.6434 1.27526,-9.13292 0.67695,-13.84103c-0.60646,-4.77106 -1.90036,-9.41738 -2.55168,-14.17854c-0.68686,-5.01763 -0.30818,-10.08714 0.33382,-15.08786c0.61403,-4.78097 0.84065,-9.60683 1.37196,-14.39771c1.13428,-10.22704 2.76141,-20.42959 3.59099,-30.68577c-5.0014,10.05858 -6.67631,20.66392 -9.00661,31.10663c-2.23126,10.00261 -4.73167,19.67706 -3.3667,30.023c0.63151,4.78855 1.93182,9.4751 2.4608,14.27647c0.57558,5.22573 -0.52607,10.03118 -1.53392,15.11817c-0.19458,0.98161 -0.35304,1.97605 -0.48704,2.97631c-1.20651,-0.97986 -2.44623,-1.92067 -3.68478,-2.85506c-3.98948,-3.00836 -8.30345,-5.5335 -12.47294,-8.27548c-0.32391,-1.9807 -1.67315,-4.03019 -2.4707,-5.79522c-0.35537,-0.78808 -0.67404,-1.6228 -1.07019,-2.3899c-0.45791,-1.40188 -1.09757,-3.26951 -1.66675,-5.15811c-0.47829,-1.58433 -0.90823,-3.1844 -1.28166,-4.79671c-0.22371,-0.96704 -0.42761,-1.93932 -0.60938,-2.91568c-0.33381,-2.98505 -0.47946,-4.83052 -0.46664,-6.69931c0.00641,-0.9647 0.04078,-1.92883 0.10661,-2.8912c0.2709,-0.64003 0.32216,-2.0833 0.45091,-2.62656c0.22138,-0.93498 0.47655,-1.86179 0.77133,-2.77637c0.66938,-1.67118 0.88435,-2.09962 1.11564,-2.51872c1.7518,-3.18674 4.10074,-5.95611 6.0011,-9.04141c0.94494,-1.53479 1.90502,-3.06025 2.81675,-4.61485c0.45325,-0.77234 0.91989,-1.54702 1.32653,-2.34502c1.1366,-2.10253 1.42498,-2.62364 1.70286,-3.15117c4.59827,-8.78435 5.6137,-17.99073 5.28862,-27.77301c-0.06816,-2.05648 -0.17594,-4.11238 -0.15322,-6.17119c0.01107,-1.02008 0.09555,-2.03375 0.12118,-3.05266c0.15613,-2.24826 0.88085,-4.01912 1.31079,-5.41576c0.65715,-2.13401 1.40925,-4.23304 2.08213,-6.35656c1.29739,-4.09547 2.15028,-8.63221 2.11416,-12.92704c-0.04078,-4.88006 -1.4809,-9.29672 -2.748,-13.92497c-2.16311,-7.90184 -0.42528,-14.913 4.22192,-21.92998c4.87674,-7.36382 12.67917,-13.92556 20.02777,-18.74908c5.12258,-3.36219 0.33906,-11.64641 -4.82431,-8.25741c-7.65911,5.02696 -15.6701,8.96039 -22.44021,15.32277c-6.37163,5.98817 -11.70452,13.95995 -13.49186,22.62539c-0.29944,1.45318 -0.46548,2.93842 -0.55869,4.42307c-5.41329,22.14915 -16.79273,42.35549 -22.90045,64.28664c-1.3207,4.74133 -2.09086,9.80851 -3.11561,14.76319c-2.3472,3.76089 -4.69381,7.52119 -7.05557,11.26984c-2.96647,4.70753 -5.75176,9.54504 -8.3582,14.47699c-1.16399,0.99734 -2.33205,1.99003 -3.48264,3.00253c-4.55166,4.00746 -8.39141,8.50048 -11.51868,13.71455c-5.8106,9.68901 -9.13244,20.68781 -12.59003,31.37068c-0.77599,2.39806 -1.56246,4.79379 -2.39788,7.17262c-0.43984,1.25383 -0.89309,2.50299 -1.36497,3.74515c-0.26158,0.68841 -0.53888,1.36983 -0.80046,2.05707c-1.30089,2.93084 -2.29069,5.0392 -3.42146,7.08519c-0.70376,1.27422 -1.44887,2.52746 -2.24059,3.74865c-1.10398,1.64378 -1.89453,2.69942 -1.97784,2.83349c-3.74829,4.66556 -8.29121,8.67826 -12.87724,12.49103c-1.04048,0.86561 -2.08912,1.72131 -3.14416,2.56944c-2.06756,1.64262 -2.13747,1.698 -2.19515,1.74346c-2.63964,2.00869 -5.23269,3.8903 -7.88923,5.68039c-5.0049,3.37385 -10.23585,6.48597 -15.68467,9.08921c-4.04366,1.7796 -5.49718,2.3217 -6.96585,2.82067c-2.30001,0.77992 -4.63847,1.4491 -7.00372,2.00402c-5.69933,-0.23141 -11.39517,-0.56075 -17.09684,-0.73329c-10.50907,-0.35674 -11.80938,-0.82598 -13.08813,-1.34651c-1.47916,-0.67558 -2.42584,-1.12442 -3.36496,-1.59132c-1.56771,-0.77935 -3.11153,-1.60474 -4.64428,-2.45053c-6.56796,-3.62507 -13.36661,-6.78732 -20.11866,-10.05858c-2.42642,-1.17455 -4.8878,-2.21444 -7.37773,-3.16341c-1.13136,-2.95357 -1.90211,-5.14412 -2.80976,-7.2962c-0.79114,-1.8752 -1.89279,-3.47177 -3.08823,-5.01705c-1.43022,-2.75596 -2.59188,-5.54282 -4.69031,-7.89251c-0.72648,-1.87053 -0.80105,-2.29197 -0.80279,-2.46626c-0.05826,-2.84048 -0.06933,-4.07799 0.02213,-5.31724c0.18002,-2.4342 0.39266,-3.71659 0.79173,-6.1712c1.65567,-10.17632 4.85809,-19.96443 8.22771,-29.68492c7.02236,-20.26172 14.18162,-40.48729 21.31234,-60.70995c3.35039,-9.5019 6.7806,-19.04403 9.69813,-28.70506c4.87732,-8.05805 9.11847,-16.52531 13.81985,-24.6912c1.81239,-2.15557 3.55022,-4.3945 5.18259,-6.75818c3.30495,-4.78621 6.31279,-9.82075 9.8228,-14.46648c6.29531,-6.88875 13.56002,-12.77724 21.58558,-17.59261c2.44099,-1.46483 0.73812,-4.81011 -1.84094,-4.37002c-3.0259,0.51645 -5.90382,0.58757 -8.86446,1.62164c-2.89307,1.00958 -5.54495,2.52572 -8.02847,4.3129c-5.42553,3.90486 -9.49831,8.92308 -13.37942,14.31901c-4.03667,5.61278 -7.62125,11.58345 -12.09834,16.86747c-3.59333,4.24062 -7.66378,8.04873 -11.79249,11.75832c-8.31102,7.46757 -17.33569,14.456 -23.99511,23.52189c-1.37721,1.8752 -2.66703,3.89321 -3.79256,6.00449c-2.89424,4.14153 -5.44708,8.51971 -7.6597,13.00457c-0.08622,-0.75545 -0.17419,-1.5103 -0.24818,-2.26691c-0.7923,-8.03532 -1.91784,-16.34869 -1.42556,-24.43472c0.47829,-7.84413 1.98891,-15.69758 3.95102,-23.29398c1.96794,-7.61679 4.52603,-15.09602 7.76923,-22.26515c3.30902,-7.31427 7.10683,-14.39537 10.48169,-21.67758c6.05529,-13.06752 9.82047,-26.6311 7.35268,-41.08068c-1.21642,-7.1225 -4.44272,-13.83055 -9.62764,-18.90413c-2.56333,-2.50882 -6.2953,-4.9028 -7.5123,-8.43286c-1.51179,-4.38402 1.8421,-8.77328 4.1089,-12.21416c9.4651,-14.36973 22.12446,-27.03796 35.89421,-37.2988c1.2502,-0.93148 0.16545,-2.97223 -1.25429,-2.14684c-13.02463,7.57541 -24.3697,17.18341 -34.05443,28.73596c-4.54642,5.42392 -10.16011,11.62426 -10.74269,19.01838c-0.58258,7.39122 4.92393,11.60211 9.68648,16.21462c10.00573,9.69135 10.29818,24.60026 6.21957,37.10762c-4.97228,15.24874 -15.38581,27.90065 -22.55964,42.07686c-3.45409,6.82463 -6.40775,13.93605 -8.81436,21.20077c-0.7422,-2.93026 -1.55898,-5.84419 -2.16835,-8.80592c-2.17825,-10.5966 -2.03144,-21.54643 -4.57088,-32.08357c-1.06379,-4.41607 -2.59479,-8.77444 -4.74683,-12.7819c-2.20737,-4.11005 -4.9816,-7.03856 -8.94835,-9.49549c-2.58023,-1.59832 -4.6472,1.83148 -3.01133,3.90486c5.503,6.97444 9.01593,15.11993 10.64598,23.82209c1.93356,10.32205 1.94463,20.90874 4.4031,31.15093c1.20651,5.02695 2.82374,9.97638 3.24611,15.15548c0.23711,2.90869 0.23361,5.8232 0.17244,8.73772c-0.31459,1.47591 -0.63093,2.9524 -0.95775,4.43181c-1.77045,8.01084 -3.0125,16.18722 -3.03871,24.39916c-0.02622,8.20378 0.56917,16.33644 0.16137,24.53964c-0.33731,2.21561 -0.50917,3.25085 -0.72997,4.27443c-0.37459,1.73996 -0.88027,3.39366 -1.43896,5.08058c-0.94843,1.81283 -1.37954,2.73032 -1.87764,3.60759c-1.00203,1.76328 -2.09203,3.47352 -3.17911,5.18434c-4.36757,6.8701 -8.20208,13.96869 -12.01561,21.15414c-8.00051,15.07679 -14.80441,30.99646 -21.12477,46.84443c-1.38419,3.46944 -2.51788,7.10792 -4.02617,10.53947c-1.06553,2.27857 -1.52926,3.2934 -2.01222,4.29949c-0.89075,1.85888 -1.83627,3.69094 -2.85695,5.48162c-1.01309,1.77727 -2.0961,3.51433 -3.27232,5.18726c-0.72822,0.6342 -1.61373,1.98187 -1.98192,2.38524c-0.8628,0.94488 -1.7687,1.8478 -2.67286,2.75013c-4.37514,-2.52455 -5.43134,-6.72495 -6.25278,-10.90845c-0.94027,-4.78854 -2.49283,-9.18014 -4.75497,-13.12872c1.10397,-8.49057 1.41099,-16.94092 1.57003,-25.52766c0.31343,-16.88554 0.34664,-33.77807 0.23012,-50.66536c-0.02505,-3.69328 -0.06,-7.41278 -0.21322,-11.12704c4.7544,-13.8148 8.56153,-28.20085 10.63141,-42.62771c1.3743,-9.57768 1.79725,-19.51559 -1.33584,-28.84321c-0.34314,-1.02183 -0.76434,-1.98187 -1.24322,-2.90752c-3.59215,-12.23514 -11.83851,-24.67021 -22.57537,-31.01919c-12.42108,-7.34516 -28.13255,-1.30221 -37.526,8.32677c-10.0133,10.26376 -12.01328,28.76102 -2.27903,40.02038c5.05559,5.84769 12.34069,3.66646 16.56087,-1.86121c2.04891,-2.68368 2.89423,-5.78939 4.01277,-8.91725c1.12962,-3.15759 2.60004,-6.50403 6.21317,-7.18486c3.19193,-0.60098 1.76753,-5.22748 -1.32128,-4.79497c-5.15579,0.72222 -8.14965,5.39186 -10.25857,9.71583c-1.26302,2.58984 -4.89771,12.00548 -9.13187,9.38941c-2.2668,-1.4013 -3.60089,-5.36096 -4.31338,-7.75611c-0.87095,-2.92618 -1.19079,-5.95086 -0.9764,-8.99653c0.39557,-5.62385 2.87093,-10.88805 6.8907,-14.82089c4.06637,-3.9789 9.33635,-5.76375 15.01937,-5.17327c2.10718,0.21859 4.10366,1.02766 5.70807,2.34793c2.36409,1.94573 3.73431,4.06342 5.12783,6.21725c0.83658,1.29288 1.6114,2.62889 2.31865,3.99697c0.9094,1.83381 0.98106,1.97371 1.04281,2.09204c1.27817,3.25901 2.16485,6.38337 2.74568,9.56544c0.13457,0.92448 0.23186,1.72189 0.25983,2.07746c0.10835,1.37973 0.14098,2.75597 0.14972,4.13978c0.02039,3.23162 0.09204,6.39561 -0.13108,9.62665c-0.27964,1.48698 -0.39732,2.40156 -0.58549,3.29456c-0.34023,1.61523 -0.73812,3.21763 -1.1768,4.80837c-1.02767,3.73175 -2.28661,7.39296 -3.59857,11.03261c-1.07835,2.99088 -2.17009,5.97942 -3.32243,8.94232c-0.314,0.80674 -0.64666,1.6059 -0.96183,2.41205c-0.93853,1.99178 -1.64927,3.55804 -2.45788,5.08233c-0.80687,1.51847 -1.66908,3.01012 -2.60877,4.44989c-0.37693,0.57824 -0.78415,1.13432 -1.16282,1.71082c-3.1028,3.76439 -5.90673,7.12366 -8.46774,10.62924c-1.31254,1.7965 -2.46196,3.68802 -3.53914,5.62151c0.11826,-3.70843 0.28954,-7.40461 0.54995,-11.12179c0.35479,-5.04677 1.28516,-10.39608 0.52082,-15.40904c-4.82955,4.84858 -4.63322,10.3611 -5.03345,15.40904c-0.40139,5.06659 -0.8692,10.08364 -1.6114,15.11293c-0.52024,3.52598 -1.17913,6.98551 -2.02095,10.38733c-6.49746,11.22672 -14.49564,21.41179 -21.45858,32.34996c-0.81211,1.27598 -1.57412,2.57177 -2.29301,3.88505c-4.71595,4.38285 -9.26295,8.93183 -12.32263,14.70665c-1.48324,2.80027 -2.71364,5.72236 -3.8316,8.69458c-0.32391,-3.83375 -1.10165,-7.66984 -2.36992,-11.48436c-1.75879,-5.29101 -4.21901,-10.69743 -4.39028,-16.35218c-0.17944,-5.92229 2.66528,-11.3293 4.05472,-16.96714c1.3539,-5.49212 1.3306,-11.00929 -0.96067,-16.24143c-1.97842,-4.51867 -5.25016,-8.28655 -7.53095,-12.63851c-2.59013,-4.94185 -2.43807,-9.53804 -0.508,-14.6775c2.03901,-5.42916 4.95888,-10.40132 6.14267,-16.14117c-6.6466,8.03765 -15.38465,14.76027 -16.20083,25.31723c-0.40722,5.26537 1.9592,9.94899 4.6105,14.32951c2.25922,3.73233 5.28687,7.71181 5.81643,12.1786c0.63675,5.37378 -1.84269,10.74698 -2.97347,15.89693c-1.29797,5.90656 -1.19544,11.58403 0.45558,17.41656c1.61373,5.69963 4.23474,11.08974 5.44941,16.90653c1.16398,5.57663 0.68336,11.41557 -0.69968,16.90419c-1.15757,4.59444 -2.95598,9.02917 -5.0818,13.28086c-0.3175,-6.12398 -1.65044,-12.17859 -4.12813,-17.89279c-2.47303,-5.70254 -5.9545,-10.36285 -10.88425,-14.14998c-2.10193,-1.61464 -4.41767,-3.13718 -6.05529,-5.2607c-1.82754,-2.37066 -3.03696,-5.31782 -4.32445,-8.00093c-2.57557,-5.36737 -5.66613,-9.85281 -9.99,-13.96111c-3.2799,-3.11678 -7.67893,-6.73428 -12.48575,-4.97624c-2.44624,0.89417 -4.46428,2.89528 -6.15083,4.81536c-1.5916,1.81341 -3.68071,3.9311 -4.099,6.39095c-0.67346,3.96024 3.41622,8.07146 7.20237,5.55215c-3.85548,0.50888 -5.56534,-4.12229 -4.9682,-6.89458c0.63093,-2.92967 3.06959,-5.25778 5.4867,-6.88408c5.44766,-3.66355 10.5347,0.86211 13.50176,5.46938c5.15288,8.00268 3.69819,18.22213 9.02292,26.11231c2.45206,3.63324 5.69176,6.68065 8.30461,10.19906c2.39847,3.23103 4.23241,6.73894 5.39348,10.59368c2.01397,6.68531 2.12058,13.63702 0.79639,20.40744c-2.99968,2.15732 -5.87178,4.50001 -8.53124,7.0642c-4.20619,1.38498 -8.37102,2.92967 -12.66343,4.01329c-8.05469,1.16406 -10.81551,1.11568 -13.56002,0.90058c-7.71854,-1.11567 -10.14031,-1.56567 -12.55916,-2.025c-10.64248,-2.02093 -21.33798,-4.34263 -32.22223,-4.32922c-2.47944,0.00349 -7.61484,0.12182 -12.72403,0.95537c-4.17182,-2.19987 -8.69668,-3.76263 -13.0491,-5.5434c-4.32795,-1.77086 -9.07303,-3.99697 -11.98998,-7.80916c-3.66498,-4.78971 -2.16252,-11.18591 -4.28601,-16.54337c-3.56245,-8.98662 -10.72579,-15.14499 -18.0074,-21.10226c-1.98483,-1.62455 -3.92364,-3.26542 -5.75701,-5.00947c-2.58255,-3.71892 -5.41095,-7.25889 -8.30926,-10.74057c-1.70637,-3.3651 -2.89133,-6.95695 -3.94054,-10.62749c0.08156,-2.57177 0.3408,-3.94567 1.00436,-7.01233c1.26477,-5.83952 3.15755,-11.49252 5.08996,-17.13735c3.70517,-10.82626 7.57813,-21.17629 14.90402,-30.01077c7.67775,-9.25883 17.14577,-17.24636 26.45182,-24.80836c8.2749,-6.72437 17.038,-12.90198 24.83926,-20.19584c3.73955,-3.49626 7.17966,-7.46233 9.74299,-11.91104c2.90414,-5.03979 4.30174,-10.43922 5.03578,-16.16799c0.6752,-5.26303 1.27002,-10.42522 3.136,-15.43003c1.75122,-4.69762 4.39146,-9.04957 7.76282,-12.7545c3.76576,-4.13745 8.16129,-7.35624 13.28796,-9.61208c5.0014,-2.20104 11.84608,-4.14327 16.47231,-0.17428c3.61197,3.09929 5.92829,8.10235 3.54905,12.67173c-2.53129,4.86199 -8.32966,6.58272 -13.46565,6.21083c8.14965,6.68473 18.68028,-1.52546 19.54773,-10.51032c0.46781,-4.85209 -1.59392,-10.3955 -5.44999,-13.44758c-4.64254,-3.67462 -10.60461,-4.0267 -16.1583,-2.44761c-10.44092,2.96814 -19.49588,10.65663 -25.92635,19.1711c-3.32883,4.40791 -5.92537,9.34161 -7.60028,14.61222c-1.90152,5.98699 -2.37807,12.34822 -4.48175,18.27867c-3.57176,10.07024 -12.68149,17.09655 -21.36536,22.61023c-9.69813,6.15779 -19.17954,12.45431 -28.30616,19.39261c3.96908,-9.08863 7.78553,-18.24662 11.59091,-27.40519c7.41327,-17.84092 15.22269,-35.80774 16.14666,-55.40087c0.46722,-9.90644 -1.31779,-19.92479 -5.02471,-29.10727c-3.71508,-9.20287 -8.57493,-17.60134 -13.24718,-26.31865c-0.97174,-1.81283 -1.91959,-3.63849 -2.82899,-5.48338c-0.51849,-1.05272 -1.00785,-2.11885 -1.5176,-3.17507c-0.35071,-0.89301 -0.92863,-2.02267 -1.50072,-3.16283c-0.51907,-1.03407 -1.02009,-2.07805 -1.50304,-3.12961c-1.3207,-3.24618 -2.15436,-5.42449 -2.83365,-7.671c-0.62976,-2.08155 -1.16457,-4.19341 -1.57353,-6.32975c-0.2977,-1.77494 -0.34431,-2.15791 -0.35712,-2.28848c-0.06001,-0.60447 -0.11127,-1.20952 -0.15031,-1.81632c-0.11768,-1.82274 -0.09146,-3.61167 0.08914,-5.42916c0.35304,-2.2127 0.54937,-3.27825 0.80628,-4.33738c0.42412,-1.74638 0.97232,-3.44555 1.58985,-5.1313c1.00086,-2.1684 1.53042,-3.08997 2.1095,-3.98939c1.28458,-1.81283 1.59917,-2.20279 1.65161,-2.26341c1.35157,-1.50273 2.02736,-2.17715 2.73111,-2.81951c2.75966,-2.16373 4.21842,-3.05557 5.74594,-3.82559c1.60674,-0.80965 1.82346,-0.89767 4.09084,-1.56976c4.56797,-1.0329 6.52542,-1.26431 6.71185,-1.27772c9.97077,-0.17895 16.45658,1.00318 23.50982,3.96666c5.99586,2.5193 13.67537,6.19567 17.80233,11.91512c7.31831,10.14193 4.9216,25.79346 -5.05034,33.36712c-10.42868,7.92107 -26.70059,5.10915 -34.79664,-4.8515c-2.87442,-3.53589 -3.92888,-7.69724 -2.29068,-12.05793c1.28399,-3.41873 3.838,-6.33092 6.90585,-8.27198c2.91695,-1.84489 6.4759,-3.02702 9.95096,-2.58926c3.23737,0.40803 7.98711,2.43246 7.46745,6.44982c-0.1305,1.00843 -0.59131,2.38874 -1.7116,2.62016c-2.35244,-4.71453 -6.84352,-4.62942 -7.0882,-1.61406c-0.32566,4.00512 3.49487,7.02048 7.28103,7.00241c4.56622,-0.02215 7.47269,-4.3607 7.11849,-8.6258c-0.82726,-9.97231 -13.39923,-11.45521 -20.92378,-8.7418c-8.63085,3.11154 -15.62816,12.0661 -14.20202,21.58199c1.36323,9.09212 9.51695,15.79901 17.71495,18.72635c8.38792,2.99495 18.11343,2.47092 26.00033,-1.72423c7.69466,-4.09256 13.11319,-11.81486 15.21745,-20.18885c2.22777,-8.86771 0.95135,-18.64358 -4.30407,-26.23006c-5.76399,-8.31978 -13.8181,-14.8856 -23.10551,-18.89072c-9.75988,-4.20856 -20.16817,-6.21783 -30.75589,-4.7221c-9.79484,1.38381 -19.12828,6.24872 -25.36533,14.01998c-14.08259,17.54714 -15.19006,43.46068 -7.55483,64.00802c2.25048,6.05578 4.87207,11.97516 7.54842,17.85315c1.21176,2.66212 2.43633,5.312 3.68654,7.95605c0.56044,1.1862 1.10981,2.37708 1.6417,3.57611c0.54004,1.14307 0.70783,1.72131 0.89483,2.2127c0.58199,1.53012 1.11505,3.07831 1.59975,4.64166c-1.34982,-1.73997 -1.95687,-2.54962 -2.58546,-3.34179c-0.78765,-0.99385 -1.59218,-1.97371 -2.41478,-2.93958c-1.58286,-1.85655 -3.22805,-3.66005 -4.91577,-5.42158c-6.74039,-7.03681 -14.03948,-13.4843 -20.81832,-20.46864c-6.72642,-6.93131 -13.16912,-14.01999 -18.38083,-22.04948c-4.89655,-7.54452 -8.84757,-16.04907 -9.59851,-24.75881c-0.93038,-10.78254 2.61343,-22.70116 -3.69469,-32.46887c-5.4867,-8.49523 -16.7671,-12.61927 -24.69653,-4.69004c-3.38243,3.38259 -6.0116,8.22826 -7.90263,12.58313c-2.05883,4.7425 -2.19573,9.67502 0.24293,14.30211c3.92481,7.44659 12.83879,11.79912 11.00543,21.47124c-0.68278,3.60176 -3.75179,10.7429 -8.59881,8.88869c-4.76489,-1.82274 -4.8045,-9.17023 -6.22598,-13.19168c-1.39935,-3.9585 -4.41593,-7.96246 -8.91341,-8.38973c-3.52574,-0.33517 -6.55397,2.07455 -7.23674,5.52942c-0.29071,1.47358 -0.05826,3.01478 0.83599,4.2412c1.40634,1.92767 3.84267,1.61873 6.00577,1.83265c2.02387,0.19994 2.51731,-3.26717 0.4847,-3.58252c-3.66848,-1.18213 -3.25077,-2.09612 -2.94317,-2.55778c8.67396,3.26717 8.36287,9.16557 10.08787,13.41144c1.50713,3.70842 4.44389,7.14814 8.66756,7.52294c4.16541,0.36956 8.17294,-1.91134 10.75084,-5.0561c5.74536,-7.00941 5.03403,-17.24869 -0.18934,-24.3193c-2.34894,-3.17915 -5.60903,-5.94503 -7.33811,-9.53979c-2.00348,-4.1666 0.35071,-8.30404 2.76781,-11.73792c1.86424,-2.64813 4.5872,-7.01758 8.38967,-6.46673c3.00783,0.43543 5.55893,3.64781 6.62155,6.28078c1.72209,4.2686 0.74802,9.67794 0.17011,14.08352c-0.68802,5.24613 -0.76725,10.44504 -0.06117,15.69059c2.60178,19.31041 15.00772,35.41545 27.80922,49.35674c6.26444,6.82113 12.48984,13.63119 18.2183,20.92098c0.7655,1.03115 1.07601,1.44035 1.37662,1.86179c0.59831,0.83821 1.17913,1.68867 1.75414,2.54321c1.36031,2.02034 2.66703,4.0774 3.89975,6.17877c1.09641,1.86879 2.10485,3.78246 3.1162,5.69671c0.47305,0.89534 0.92163,1.80467 1.35565,2.71925c0.2709,0.57007 0.51558,1.15414 0.79056,1.72189c0.85755,2.23194 1.61315,4.32573 2.21495,6.48363c0.39265,1.40713 1.2135,3.56562 1.40692,5.32074c-0.03496,1.35992 0.03495,1.9842 0.0769,2.61083c0.08214,1.23575 0.12816,2.482 0.16778,3.7195c0.06816,2.13051 0.30818,4.90746 -0.12584,7.15572c-0.34954,1.40538 -0.44567,2.0046 -0.55752,2.6015c-0.25401,1.34708 -0.54821,2.68601 -0.8727,4.01678c-0.56335,2.30888 -1.22923,4.58978 -1.96153,6.8497c-2.374,-3.23978 -4.8715,-6.39387 -7.84088,-9.1102c-3.73605,-3.41872 -7.66611,-6.52152 -12.62732,-7.92515c-4.97228,-1.40713 -10.07564,-0.78983 -14.76653,1.19087c-3.70576,1.56451 -6.82196,3.89846 -10.03311,6.28195c-1.54674,1.14832 -3.11387,2.28381 -4.80334,3.21529c-4.57845,1.63796 -5.05966,1.72773 -5.54087,1.82857c-7.22976,-0.65285 -7.68941,-0.80207 -8.1444,-0.96878c-2.55517,-1.39606 -2.82432,-1.57559 -3.08823,-1.76037c-1.30147,-1.27947 -2.09552,-2.0151 -2.80219,-2.86322c-1.37429,-2.09262 -1.87239,-2.97631 -2.32971,-3.87922c-1.11855,-2.66503 -1.45528,-3.66005 -1.7454,-4.67255c-1.26302,-4.40908 -1.79608,-8.37341 -2.17067,-12.70962c-0.79347,-9.17373 -0.88727,-18.63717 -3.79781,-27.46349c-2.85986,-8.67126 -8.34423,-16.3924 -14.11172,-23.37266c-10.84173,-13.1229 -27.69505,-23.80285 -45.33542,-18.91638c-8.38617,2.32229 -14.75896,8.28131 -19.88679,15.06222c-5.2723,6.97094 -10.06632,15.12517 -11.4645,23.8728c-1.40051,8.75928 0.81852,16.85115 6.44795,23.67927c4.91402,5.95961 11.80996,10.12795 18.95874,12.84194c7.0043,2.65979 15.67419,4.40967 22.61382,0.62896c3.55022,-1.93349 6.05645,-5.31258 7.71505,-8.92367c1.81122,-3.94217 3.36728,-8.15423 4.20444,-12.41758c1.49489,-7.61097 0.17186,-16.08114 -6.39493,-20.99093c-5.62826,-4.20739 -13.40913,-2.96173 -16.97449,3.29632c-1.49198,2.6184 -1.64694,5.46705 -0.44917,8.20786c1.72151,-3.955 3.1762,-6.67075 5.60554,-8.24225c13.89267,3.52889 14.44612,11.18649 12.99318,17.20438c-0.84182,3.48926 -2.11475,6.96744 -3.66906,10.20256c-1.43896,2.99379 -3.29272,5.7346 -6.60116,6.78266c-5.6137,1.77902 -12.04649,-0.74554 -17.02693,-3.2835c-10.24167,-5.21931 -20.05748,-14.03922 -18.20838,-26.67481c1.01193,-6.9109 4.734,-13.21383 8.67104,-18.84467c3.45176,-4.93603 7.74651,-9.83067 13.39166,-12.26662c12.28476,-5.3015 25.56864,1.93291 34.11502,10.62866c4.69032,4.77222 8.99788,10.21246 11.93231,16.24959c3.00201,6.17877 3.90209,12.7854 3.96442,19.58846c0.13458,14.68158 -2.06057,30.77262 6.90177,43.58483c4.33902,6.20326 10.46014,10.958 17.97128,12.56972c7.75,1.66303 15.55825,0.59865 22.67383,-2.84048c2.72179,-1.3162 5.16336,-3.12786 7.63115,-4.85617c1.1768,-0.82481 2.36351,-1.6397 3.60206,-2.3695c7.84263,0.57299 8.31044,1.05739 8.81611,1.47475c0.88435,1.2818 1.34925,2.02792 1.79142,2.78802c0.67637,1.16348 1.45353,2.41147 1.99416,3.68162c0.67171,2.33452 0.91814,3.27533 1.12611,4.22488c0.15147,1.03873 0.28954,2.32695 0.29537,2.64755c-0.36994,3.30156 -0.67579,3.92177 -0.85464,4.52099c-0.52257,0.9956 -0.96183,1.68984 -1.40925,2.37009c-1.29914,1.77902 -1.56013,2.10078 -1.67199,2.2331c-1.20535,1.41995 -2.40953,2.84282 -3.49195,4.36245c-1.11156,1.55868 -2.15087,3.17274 -3.25369,4.73958c-1.82812,2.59683 -3.71508,5.14995 -5.63466,7.67917c-6.03781,7.66342 -12.45371,14.99168 -18.93428,22.28322c-6.30113,7.08985 -12.32147,14.41461 -16.71059,22.77752c-9.44412,10.20139 -18.1845,22.01684 -20.70822,35.84447c-1.3638,7.4734 -2.55983,14.84188 -4.87965,22.1031c-1.6749,5.24088 -3.56885,10.41415 -5.52922,15.55885c-3.61546,4.49185 -7.08586,9.09679 -10.46072,13.77167c-1.46284,2.025 -2.91695,4.05642 -4.37572,6.08434c-0.68744,0.95596 -1.38362,1.90551 -2.09203,2.84574c-0.86978,1.10576 -1.2904,1.6263 -1.71743,2.14042c-6.44561,7.76193 -13.00483,12.46247 -23.15387,15.08961c-8.94486,2.31646 -18.5725,3.47177 -27.5057,0.89767c-3.30961,-2.52047 -7.52222,-4.23188 -11.35323,-6.00623c-1.82695,-1.50622 -3.52283,-3.18032 -5.08763,-4.9506c-1.42614,-1.61289 -2.70023,-3.33304 -3.83334,-5.1552c0.46256,-1.57675 1.06028,-3.04158 1.81064,-4.51866c2.10776,-4.14852 4.40893,-8.21077 6.77419,-12.21707c2.09261,-3.54405 4.18055,-7.02515 7.21694,-9.85223c3.11969,-2.9046 7.1179,-4.37585 11.02931,-5.86633c4.04482,-1.54062 8.11236,-3.00487 12.06979,-4.76465c8.91224,-3.96258 17.09451,-9.23086 24.48564,-15.5845c-9.86475,3.27766 -19.08982,7.06653 -28.72853,9.37658c-8.71649,2.08854 -17.31122,3.12552 -24.69012,8.15831c0.47771,-0.63128 0.95309,-1.27306 1.41857,-1.93757c2.07571,-2.9629 4.16774,-5.92055 6.37687,-8.7861c4.44854,-5.77132 9.69114,-10.75573 15.8309,-14.70548c6.28365,-4.04302 13.35903,-6.67074 19.72483,-10.60126c12.0628,-7.44659 21.28322,-17.6847 29.15148,-29.39056c4.34776,-6.46847 7.90787,-13.27678 10.60753,-20.59921c1.37837,-3.73933 2.15727,-8.55061 5.10336,-11.39284c2.98628,-2.88188 6.77243,-4.8177 10.18341,-7.13182c-7.16626,1.11509 -14.54515,3.05091 -19.51394,8.43752c-2.37632,2.57643 -4.03899,5.84943 -5.58398,8.95514c-1.62597,3.26834 -3.37253,6.46731 -4.94607,9.76071c-5.93644,12.42692 -13.69401,23.97714 -25.83546,31.03493c-6.72583,3.90953 -14.63545,5.08933 -21.51625,8.78901c-6.77243,3.6414 -12.34185,8.67768 -18.11576,13.665c-3.18785,2.75422 -6.4159,5.57256 -9.50646,8.51913c1.74656,-2.98796 3.58167,-5.92987 5.82575,-8.56984c3.04105,-3.57669 6.65243,-6.53376 10.42926,-9.29439c7.18257,-5.25137 14.61682,-10.06732 20.74609,-16.59933c6.03606,-6.43175 10.87726,-14.04913 13.32291,-22.57467c2.23884,-7.80508 3.54381,-18.186 -1.38536,-25.29975c-4.79052,-6.91381 -13.62935,-7.4291 -19.97301,-2.31063c-3.47797,2.80493 -4.6338,6.84562 -4.72818,11.18475c-0.09845,4.53032 2.65596,12.11039 -3.8013,13.49246c6.23821,0.89067 9.13652,-6.88817 9.22042,-11.97633c0.0565,-3.4298 0.4078,-7.30145 3.92772,-8.92833c13.70916,5.04561 11.47382,16.6926 9.82804,22.49773c-2.22078,7.83422 -6.75321,14.75911 -12.36166,20.59222c-5.66963,5.89607 -12.19622,10.2521 -19.06652,14.59065c-7.27986,4.59677 -13.29612,10.01019 -18.29578,17.04234c-5.18492,7.29212 -8.99263,15.72264 -12.68324,23.84307c-1.91493,4.21264 -3.68363,8.48649 -5.54554,12.72128c-1.52168,3.46127 -3.18319,7.0129 -5.95683,9.65579c-3.41855,3.25784 -8.36636,4.68129 -12.75956,6.05928c-4.77828,1.49922 -9.6189,2.72973 -14.56322,3.54346c-5.0952,0.83938 -33.23372,19.68464 -56.95217,20.25705c-23.71844,0.57241 -75.22096,34.41383 -101.32298,33.31243c-17.40136,-0.73427 -39.34215,-0.71898 -65.82238,0.0459l0,35.44171l2796,0l0,-35.44171z"/>
    <path fill="#000000" id="Fill-19" d="m2947,471c0.44805,0.107 0.94322,0.317 1.29343,0.42c1.72894,0.317 -0.11276,-0.252 -1.29343,-0.42"/>
    <path fill="#000000" id="Fill-21" d="m2948,471.05935c-0.37897,-0.061 -0.72439,-0.079 -1,-0.035c0.22665,-0.021 0.58386,-0.004 1,0.035"/>
    <path fill="#000000" id="Fill-23" d="m2947.176,471c-0.069,0.006 -0.131,0.014 -0.176,0.025l0.001,0c0.052,-0.013 0.116,-0.016 0.175,-0.025"/>
    <path fill="#000000" id="Fill-25" d="m1399.096,268.595c-0.024,-0.159 -0.056,-0.356 -0.096,-0.595c0,0.005 0.001,0.011 0.002,0.016c0.032,0.193 0.063,0.386 0.094,0.579"/>
    <path fill="#000000" id="Fill-27" d="m851,449c-1.33027,0.272 -2.66299,0.561 -4,0.877c1.33333,-0.292 2.66667,-0.585 4,-0.877"/>
    <path fill="#000000" id="Fill-29" d="m485.37375,145.98237c-0.636,-1.713 -0.339,-0.835 0,0"/>
    <path fill="#000000" id="Fill-31" d="m413,242c-0.58694,0.025 -0.8898,0.047 -1,0.063c0.32898,-0.024 0.65796,-0.045 0.98775,-0.06c0.00409,-0.001 0.00817,-0.002 0.01225,-0.003"/>
   </g>
  </g>
 </g>
</svg>