<?xml version="1.0" encoding="UTF-8"?>
<svg class="mid" width="6583px" height="748px" viewBox="0 0 6583 748" version="1.1" xmlns="http://www.w3.org/2000/svg" xmlns:xlink="http://www.w3.org/1999/xlink">
    <!-- Generator: Sketch 49.1 (51147) - http://www.bohemiancoding.com/sketch -->
    <title>Page 1</title>
    <desc>Created with Sketch.</desc>
    <defs></defs>
    <g id="Page-1" stroke="none" stroke-width="1" fill="none" fill-rule="evenodd">
        <g fill="#443B62">
            <path d="M3476.7214,489.75 C3477.0144,489.869 3477.3074,489.989 3477.6004,490.108 C3480.2394,491.139 3483.1334,491.93 3475.8324,489.341 C3475.9464,489.395 3476.0584,489.452 3476.1724,489.505 C3476.3424,489.585 3476.5274,489.667 3476.7214,489.75" id="Fill-1"></path>
            <path d="M292.1678,601.8565 C292.0798,601.8585 291.9918,601.8615 291.9048,601.8655 C291.9888,601.8635 292.0728,601.8595 292.1568,601.8585 C292.1608,601.8575 292.1648,601.8575 292.1678,601.8565" id="Fill-3"></path>
            <path d="M6582.85327,498.8565 C6566.09842,497.879664 6525.96105,497.879664 6462.44115,498.8565 C6367.1613,500.321755 6301.455,452.3854 6277.765,449.4234 C6248.039,445.0514 6218.772,437.9454 6190.861,426.7574 C6130.037,399.7894 6081.808,352.4304 6023.978,320.3034 C6016.781,316.3044 6009.441,312.5584 6001.944,309.1494 C5991.859,304.5654 5981.406,299.5254 5970.536,297.0554 C5956.808,293.9364 5942.318,293.6644 5928.829,298.1424 C5918.279,301.6454 5908.482,306.8524 5898.892,312.3784 C5864.224,332.3534 5829.396,352.0834 5794.887,372.3344 C5791.136,374.5354 5787.45,376.8624 5783.792,379.2424 C5756.559,371.6674 5729.645,362.7064 5703.453,352.2334 C5695.371,348.5854 5687.355,344.7644 5679.131,341.4664 C5662.417,333.7064 5645.96,325.0294 5628.465,319.3414 C5602.744,310.9774 5576.515,313.8284 5550.582,319.0094 C5517.701,323.1934 5484.73,327.3244 5452.15,333.1874 C5433.937,323.2934 5416.47,312.0994 5399.743,299.7314 C5371.388,277.1554 5343.836,253.2344 5313.001,234.1374 C5293.58,222.1104 5272.164,212.7014 5250.635,205.2594 C5242.746,202.5334 5234.663,200.3564 5226.443,198.8894 C5211.898,196.2954 5196.921,193.9024 5182.082,193.7574 C5167.354,193.6144 5152.228,195.9594 5137.882,198.6434 C5129.946,200.1284 5122.343,202.6294 5114.893,205.7094 C5100.864,211.5094 5087.053,217.0864 5074.145,225.0524 C5067.218,229.3284 5060.556,234.0194 5054.024,238.8714 C5021.544,262.9974 4991.445,289.3804 4961.784,316.8234 C4936.609,340.1154 4911.694,363.7484 4884.972,385.2664 C4863.666,400.9634 4841.228,414.8744 4818.222,427.8414 C4807.621,431.5154 4796.811,434.5394 4785.773,436.6324 C4787.297,436.6224 4781.406,437.8214 4775.287,439.0494 C4765.692,440.0324 4758.276,440.1644 4750.86,439.7874 C4722.711,431.5224 4709.821,423.3554 4697.044,415.0744 C4681.125,404.7564 4664.685,394.9634 4647.856,386.1934 C4639.006,379.2674 4631.722,373.1974 4624.372,367.1934 C4619.109,362.8954 4613.831,358.6194 4608.537,354.3614 C4605.732,352.1074 4602.918,349.8654 4600.113,347.6144 C4598.867,346.6134 4597.625,345.6094 4596.382,344.6034 C4594.373,342.9754 4581.908,333.5484 4588.146,338.1714 C4584.707,335.4984 4583.445,334.5134 4582.182,333.5294 C4579.658,331.5614 4577.131,329.5964 4574.601,327.6344 C4566.929,321.6844 4559.244,315.7504 4551.542,309.8364 C4528.77,292.3484 4505.837,275.0704 4482.888,257.8164 C4480.021,255.6604 4477.166,253.4874 4474.285,251.3494 C4471.214,248.8824 4468.753,246.8944 4466.232,245.2094 C4459.648,240.8064 4452.789,236.6454 4446.171,232.2204 C4433.267,223.5914 4420.322,215.0214 4407.458,206.3324 C4405.742,204.8404 4404.718,203.5904 4403.441,202.4254 C4400.96,200.1664 4398.355,198.0274 4395.818,195.8324 C4389.464,190.3364 4383.111,184.8414 4376.757,179.3444 C4371.675,174.9484 4366.593,170.5524 4361.51,166.1564 C4352.884,158.6944 4344.116,149.5644 4332.532,147.0464 C4310.227,142.1974 4290.682,155.6724 4274.638,169.5324 C4263.538,179.1224 4253.827,191.3374 4245.974,203.6524 C4245.3,204.7094 4244.599,205.8284 4244.017,206.9474 C4242.303,209.5874 4241.493,210.6354 4240.683,211.6844 C4238.876,214.3414 4237.285,217.1734 4235.655,219.9384 C4234.084,222.6014 4232.552,225.2864 4231.037,227.9804 C4226.722,226.4214 4222.44,224.7634 4218.189,223.0204 C4206.003,217.7534 4193.673,212.0734 4182.645,204.8384 C4171.597,197.5894 4160.792,189.9764 4150.113,182.1974 C4144.867,177.2164 4139.536,172.3274 4134.005,167.6644 C4131.261,165.3504 4128.524,163.4104 4125.605,161.8694 C4124.913,160.7274 4124.21,159.5924 4123.542,158.4344 C4109.541,134.2084 4073.805,134.7224 4059.684,158.4344 C4043.115,186.2574 4026.115,213.9724 4007.048,240.1534 C3989.376,264.4184 3972.053,288.9944 3953.914,312.9174 C3939.408,331.1394 3923.449,348.2254 3905.329,362.8824 C3887.1,376.3874 3867.476,387.8064 3848.703,400.5284 C3829.919,413.2574 3811.765,427.2184 3791.18,436.9284 C3771.682,444.2624 3751.23,447.7964 3730.738,451.3714 C3725.119,452.3514 3719.499,453.4084 3713.89,454.5434 C3702.294,451.7394 3697.023,450.9754 3691.75,451.0994 C3672.447,439.9434 3653.618,427.9894 3635.057,415.5074 C3602.443,393.5764 3569.234,372.6784 3531.253,361.2664 C3513.928,356.0604 3496.414,352.0794 3479.441,345.6824 C3475.811,344.2254 3474.875,343.8494 3473.929,343.5184 C3471.937,342.3484 3468.099,340.3184 3464.408,338.0474 C3463.052,337.2124 3461.743,336.3144 3460.419,335.4374 C3458.033,333.3334 3455.823,331.0754 3453.726,328.7034 C3450.931,324.7574 3448.126,320.7834 3444.861,317.2754 C3437.955,307.4534 3425.523,300.3654 3414.387,297.4794 C3402.969,294.5204 3389.577,294.9664 3378.441,298.9614 C3360.153,305.5184 3345.884,316.4354 3332.281,330.1234 C3315.409,347.0974 3297.315,362.7844 3278.513,377.5744 C3247.785,400.8494 3215.506,422.3184 3182.109,441.5094 C3149.002,460.5354 3115.882,460.3064 3080.947,475.8784 C3063.656,482.7214 3045.774,488.1214 3027.459,491.3824 C3018.693,492.1464 3009.927,492.2264 3001.154,491.5494 C2989.758,489.3504 2978.691,485.9534 2967.859,481.7544 C2924.177,462.2124 2883.703,456.3204 2837.211,443.0724 C2809.847,435.2754 2781.258,431.2454 2752.943,429.0304 C2741.617,428.1444 2705.278,419.9534 2698.497,416.0774 C2678.76,404.7944 2659.27,392.9694 2641.004,379.4014 C2636.267,375.7434 2634.176,374.0694 2632.116,372.3534 C2627.685,368.6614 2623.36,364.8434 2619.168,360.8814 C2610.998,353.1584 2603.489,344.8614 2596.443,336.1064 C2595.527,334.9664 2594.947,334.1894 2594.374,333.4064 C2592.625,331.0114 2590.93,328.5784 2589.285,326.1094 C2586.01,321.1934 2582.94,316.1414 2580.026,311.0034 C2573.904,300.2104 2568.486,289.0354 2563.258,277.7884 C2562.321,275.7694 2560.924,273.5444 2560.073,271.3644 C2558.928,268.3604 2558.288,266.8034 2557.636,265.2524 C2554.817,258.5364 2552,251.8174 2549.078,245.1454 C2544.059,233.6844 2538.663,222.3904 2532.86,211.3054 C2520.134,186.9954 2505.542,163.6654 2489.245,141.5894 C2480.812,130.1654 2472.255,118.4464 2462.545,108.0544 C2451.875,96.6364 2437.292,87.3784 2421.079,88.3574 C2415.108,88.7184 2409.631,91.0524 2405.672,95.0334 C2400.411,96.9084 2396.072,99.6954 2392.524,103.1454 C2366.393,112.2214 2348.838,135.7994 2331.929,158.0354 C2329.382,161.1854 2327.891,162.7704 2326.386,164.3494 C2323.748,167.1184 2321.036,169.8164 2318.254,172.4434 C2315.06,175.4614 2311.775,178.3824 2308.407,181.2074 C2306.954,182.4244 2305.268,183.5534 2303.854,184.8504 C2295.132,188.2434 2286.446,191.7234 2277.877,195.5064 C2265.865,200.8094 2254.112,206.8834 2243.465,214.6154 C2240.328,216.8924 2217.024,231.6584 2209.058,238.6034 C2207.201,240.2234 2205.437,241.9414 2203.747,243.7284 C2196.752,242.9284 2191.851,242.6504 2186.949,242.5094 C2171.616,242.0694 2156.311,243.7014 2141.014,243.1244 C2128.393,237.9234 2121.987,233.8404 2115.791,229.4284 C2096.302,213.4964 2077.834,196.1124 2059.319,179.1434 C2037.481,159.1314 2016.089,138.5874 1996.063,116.7454 C1987.352,107.2444 1978.927,97.4884 1970.833,87.4594 C1962.015,75.4524 1953.841,63.0674 1946.004,50.3624 C1928.323,21.6954 1900.364,0.6464 1865.199,0.8634 C1843.549,0.9964 1824.101,9.8734 1809.502,23.7754 C1797.561,31.5174 1786.681,41.0854 1776.798,51.0394 C1768.035,59.8674 1759.952,69.3604 1751.247,78.2494 C1747.012,82.5724 1742.667,86.7924 1738.119,90.7864 C1737.036,91.7364 1735.942,92.6744 1734.835,93.5984 C1728.568,98.3534 1726.877,99.5274 1725.168,100.6744 C1700.323,117.3554 1672.625,129.2784 1648.034,146.4024 C1621.799,164.6704 1598.176,186.2234 1575.087,208.2404 C1551.181,231.0364 1527.538,253.9634 1504.552,277.6884 C1493.903,288.6804 1483.268,299.6874 1472.643,310.7034 C1460.738,318.4214 1448.817,326.1174 1436.875,333.7894 C1372.266,375.2924 1307.473,416.5934 1244.083,459.9464 C1225.623,443.6594 1207.671,426.7724 1192.29,407.6154 C1182.16,393.9654 1173.428,379.3754 1166.473,363.8594 C1161.621,351.4954 1158.03,338.7334 1155.895,325.6134 C1155.397,320.8254 1155.09,316.0264 1154.99,311.2034 C1154.726,298.4824 1147.251,287.2304 1135.54,282.2884 C1127.603,278.9384 1096.836,278.5334 1089.671,280.8524 C1080.551,283.8034 1074.762,289.1504 1069.021,296.7314 C1057.025,312.0874 1044.869,326.2974 1032.189,340.0244 C1022.245,349.2304 1011.794,357.9184 1001.262,366.4354 C979.361,384.1494 957.433,402.0714 938.296,422.8324 C934.355,427.1074 930.597,431.5704 926.803,435.9984 C914.745,445.2414 903.788,453.2894 892.706,461.1504 C874.999,464.7314 865.841,468.5614 857.235,472.6404 C842.602,479.5774 829.881,490.3254 817.415,500.4764 C814.876,502.5434 812.346,504.6204 809.794,506.6724 C807.975,508.2994 806.964,509.2754 805.959,509.7234 C800.32,513.8154 794.12,517.4574 787.731,521.1144 C786.445,521.8504 785.054,522.8044 783.739,523.8154 C742.612,521.7794 705.277,519.1004 667.895,517.6714 C666.103,516.6934 664.301,515.7334 662.478,514.8114 C660.217,513.2314 657.861,511.7934 655.289,510.6244 C652.989,509.5794 650.689,508.5324 648.391,507.4824 C643.54,505.2654 638.693,503.0384 633.854,500.7944 C629.273,498.6704 624.699,496.5324 620.133,494.3774 C617.6,493.1804 615.069,491.9784 612.541,490.7704 C607.29,487.9054 605.002,486.7344 602.65,485.8004 C600.403,484.3274 598.112,482.8774 595.728,481.4214 C591.808,479.0264 587.939,476.2514 583.853,474.0994 C565.634,459.0414 547.238,444.3364 529.949,428.1194 C511.195,410.5294 493.779,391.8394 477.866,371.6584 C474.205,366.8224 470.573,361.9664 466.833,357.1884 C468.958,359.9404 471.084,362.6914 473.21,365.4424 C467.897,357.7084 461.65,350.5894 455.729,343.2744 C454.79,341.9974 453.847,340.7194 452.883,339.4614 C444.512,326.0914 426.354,317.8964 410.86,322.9104 C404.654,324.9184 399.064,328.1744 394.261,332.5844 C386.813,339.4224 383.992,349.5354 383.243,359.1834 C383.15,360.3774 383.043,361.5684 382.93,362.7584 C381.115,373.0994 378.167,383.1534 374.318,392.9284 C373.855,393.9774 373.393,395.0264 372.933,396.0764 C368.371,404.2214 363.266,412.0174 357.772,419.5504 C352.512,425.2044 347.263,430.8674 342.012,436.5284 C337.149,439.7264 332.235,442.8284 327.184,445.6614 C324.433,447.2054 321.622,448.6084 318.778,449.9664 C316.248,450.8494 317.208534,455.884512 256.107921,472.6404 C195.007307,489.396288 220.609607,499.950032 145.101111,498.8565 C94.7621132,498.127479 46.3950763,498.773445 -9.09494702e-13,500.7944 L-9.09494702e-13,748 L6582.85327,748 L6582.85327,498.8565 Z" id="Fill-5"></path>
            <path d="M808.8777,652.5947 C808.8797,652.5937 808.8807,652.5927 808.8817,652.5907 C808.4607,652.9067 807.8997,653.3247 807.3737,653.7237 C807.8707,653.3487 808.3677,652.9737 808.8677,652.6027 C808.8727,652.5997 808.8737,652.5987 808.8777,652.5947" id="Fill-7"></path>
        </g>
    </g>
</svg>